<?xml version="1.0" encoding="UTF-8"?>
<svg version="1.1" xmlns="http://www.w3.org/2000/svg" width="192" height="192">
<path d="M0 0 C20.88701442 17.08652948 34.05317284 40.07617754 37 67 C38.88943583 90.51653754 32.54471976 115.32958919 17.6640625 133.91796875 C15.50309667 136.3481579 13.29028214 138.69199808 11 141 C10.175 141.86625 9.35 142.7325 8.5 143.625 C7.675 144.40875 6.85 145.1925 6 146 C5.42636719 146.58007812 4.85273438 147.16015625 4.26171875 147.7578125 C-0.24819406 152.08936718 -5.05522125 155.49305619 -10.4375 158.625 C-11.01411377 158.97272461 -11.59072754 159.32044922 -12.18481445 159.67871094 C-25.90398825 167.35072318 -39.86342441 169.98262989 -55.42333984 169.72729492 C-58.13147937 169.68740456 -60.83473937 169.70676188 -63.54296875 169.73242188 C-78.07324449 169.7274666 -90.85626646 166.94638398 -103.6875 159.875 C-104.73647461 159.30640259 -104.73647461 159.30640259 -105.80664062 158.72631836 C-126.51730982 147.06122745 -141.69575978 127.44772669 -149 105 C-149.31541748 104.04432129 -149.31541748 104.04432129 -149.63720703 103.06933594 C-156.71188261 80.67459884 -154.54559824 55.21619647 -144.0625 34.25 C-142.76242781 31.7948114 -141.39843777 29.40287125 -140 27 C-139.4946875 26.13117187 -138.989375 25.26234375 -138.46875 24.3671875 C-134.67640753 18.32050812 -129.87840736 13.1811454 -125 8 C-124.45859375 7.38253906 -123.9171875 6.76507812 -123.359375 6.12890625 C-92.53646573 -27.57392131 -34.4051325 -26.764631 0 0 Z " fill="#080838" transform="translate(154,23)"/>
<path d="M0 0 C3.44442569 0.18618517 4.78029427 0.79217026 7.3125 3.1875 C9.25629673 6.42716122 9.34530062 8.28801837 9 12 C7.68 12 6.36 12 5 12 C4.34 10.35 3.68 8.7 3 7 C3 8.98 3 10.96 3 13 C2.01 13 1.02 13 0 13 C0.36228834 23.71180835 0.36228834 23.71180835 3 34 C3.99 34.495 3.99 34.495 5 35 C5.28875 34.236875 5.5775 33.47375 5.875 32.6875 C7 30 7 30 9 27 C11.625 26.8125 11.625 26.8125 14 27 C14 26.34 14 25.68 14 25 C15.90625 25.26953125 15.90625 25.26953125 18 26 C18.78727725 27.9353899 19.56370233 29.87792201 20.2265625 31.859375 C21.36519483 35.01074124 22.86621427 37.42690544 25 40 C27.62766389 40.96219702 27.62766389 40.96219702 30 41 C30 39.35 30 37.7 30 36 C32.16874252 36.50603992 33.99967627 36.99983813 36 38 C36.185625 37.34 36.37125 36.68 36.5625 36 C40.75077762 27.2592467 50.07421718 18.74366511 59 15 C62.0625 14.6875 62.0625 14.6875 65 15 C66.5625 16.3125 66.5625 16.3125 68 18 C68.886875 18.433125 69.77375 18.86625 70.6875 19.3125 C73 21 73 21 73.5625 23.875 C72.87955578 27.66913457 71.74980532 29.32657816 69 32 C66.75 32.8125 66.75 32.8125 65 33 C64.896875 32.360625 64.79375 31.72125 64.6875 31.0625 C64.460625 30.381875 64.23375 29.70125 64 29 C62.515 28.505 62.515 28.505 61 28 C61 27.34 61 26.68 61 26 C51.31097617 31.05738505 51.31097617 31.05738505 44 39 C45.58272601 40.58272601 47.38034003 40.34735747 49.5625 40.5625 C50.38878906 40.64628906 51.21507812 40.73007812 52.06640625 40.81640625 C52.70449219 40.87699219 53.34257812 40.93757813 54 41 C54.33 41.99 54.66 42.98 55 44 C56.485 44.495 56.485 44.495 58 45 C57.49912282 49.34093558 54.71735302 51.75243176 52 55 C50.21829881 58.47855946 49.77754356 61.10701232 50 65 C53.465 64.505 53.465 64.505 57 64 C56.67 65.65 56.34 67.3 56 69 C56.89525391 68.89558594 56.89525391 68.89558594 57.80859375 68.7890625 C68.27428905 68.13592847 79.89772046 71.73671501 88.625 77.625 C90.80025256 79.78294285 90.98947569 80.87270593 91.24609375 83.9765625 C90.78397598 92.21602402 90.78397598 92.21602402 88 95 C85.6875 95.265625 85.6875 95.265625 83 95.25 C81.6696875 95.25773437 81.6696875 95.25773437 80.3125 95.265625 C78 95 78 95 76 93 C76 92.01 76 91.02 76 90 C79.3 90.33 82.6 90.66 86 91 C80.55875809 84.83325917 73.06689495 79.87602208 65 78 C62.24934768 77.83142517 62.24934768 77.83142517 60 78 C60.495 78.9075 60.99 79.815 61.5 80.75 C63 84 63 84 63 88 C62.34 88 61.68 88 61 88 C61 89.65 61 91.3 61 93 C55.06 93 49.12 93 43 93 C42.01 94.98 42.01 94.98 41 97 C42.98 97.99 42.98 97.99 45 99 C44.505 100.485 44.505 100.485 44 102 C43.01 102 42.02 102 41 102 C41.5775 103.010625 42.155 104.02125 42.75 105.0625 C47.11823553 113.84577358 50.52218888 125.16285439 49 135 C47.56622563 138.96396442 46.40938031 139.77599945 42.6875 141.8125 C36.7012987 143.74025974 36.7012987 143.74025974 33 143 C30.13981943 139.83874779 29.06611198 137.89251171 28.75 133.625 C28.8325 132.75875 28.915 131.8925 29 131 C30.32 131 31.64 131 33 131 C33.66 133.64 34.32 136.28 35 139 C35.66 139 36.32 139 37 139 C36.649375 138.4225 36.29875 137.845 35.9375 137.25 C34.85082593 134.64198224 35.06934867 133.60582371 36 131 C36.66 131 37.32 131 38 131 C37.53115339 120.31606991 37.53115339 120.31606991 35 110 C32.22999175 113.32086771 32.22999175 113.32086771 30 117 C29.278125 116.979375 28.55625 116.95875 27.8125 116.9375 C25.08074862 116.99820559 22.65743909 117.39258535 20 118 C19.82984375 117.40832031 19.6596875 116.81664062 19.484375 116.20703125 C18.01761557 111.42445928 16.67950578 107.56800561 13 104 C10.87053397 103.13034494 10.87053397 103.13034494 9 103 C9 104.65 9 106.3 9 108 C7.68 108 6.36 108 5 108 C5 107.34 5 106.68 5 106 C4.34 106 3.68 106 3 106 C2.79375 106.680625 2.5875 107.36125 2.375 108.0625 C-0.69036964 114.61124422 -5.83474828 118.91938574 -11.375 123.375 C-11.90391846 123.81610107 -12.43283691 124.25720215 -12.9777832 124.71166992 C-17.35172514 128.10949305 -20.61465126 128.80624142 -26 129 C-27.6875 127.75 -27.6875 127.75 -29 126 C-30.65261839 124.97695052 -32.31791365 123.97383946 -34 123 C-34.495 122.505 -34.495 122.505 -35 122 C-34.78194532 118.14770069 -34.51531411 115.69300863 -32.1875 112.5625 C-30 111 -30 111 -26 111 C-26.62759865 113.92879371 -27.58622659 116.36095629 -29 119 C-28.649375 118.505 -28.29875 118.01 -27.9375 117.5 C-26 116 -26 116 -22.875 116.25 C-17.16193013 115.88141485 -14.08343217 112.81540766 -10 109 C-7.53354569 106.27975293 -7.53354569 106.27975293 -6 104 C-8.97 103.67 -11.94 103.34 -15 103 C-15.33 101.68 -15.66 100.36 -16 99 C-17.32 98.67 -18.64 98.34 -20 98 C-20 97.01 -20 96.02 -20 95 C-19.236875 94.2575 -18.47375 93.515 -17.6875 92.75 C-14.04003185 89.01770701 -12 85.3635712 -12 80 C-13.98 80 -15.96 80 -18 80 C-18 78.35 -18 76.7 -18 75 C-19.155 75.103125 -20.31 75.20625 -21.5 75.3125 C-30.6110837 75.3125 -42.20018519 71.66003459 -49.71484375 66.375 C-52.08805709 63.83587813 -52 61.34825183 -52 58 C-52.0825 56.7625 -52.165 55.525 -52.25 54.25 C-52 51 -52 51 -50.76953125 49.28125 C-48.42458635 47.58336495 -47.26115506 47.82203251 -44.4375 48.25 C-43.65246094 48.35828125 -42.86742187 48.4665625 -42.05859375 48.578125 C-40 49 -40 49 -38 50 C-38.33 51.32 -38.66 52.64 -39 54 C-42.96 53.505 -42.96 53.505 -47 53 C-45.2984375 53.61875 -45.2984375 53.61875 -43.5625 54.25 C-41.7990625 55.11625 -41.7990625 55.11625 -40 56 C-39.65800784 57.33113871 -39.32483418 58.66457061 -39 60 C-33.95279813 64.03249026 -27.20867045 65.03307591 -21 66 C-21.515625 65.195625 -22.03125 64.39125 -22.5625 63.5625 C-24.40218298 59.00328565 -23.8736321 55.73655958 -23 51 C-20 50 -20 50 -17 51 C-14.767731 50.91382274 -12.53761514 50.76077759 -10.3125 50.5625 C-8.54326172 50.40974609 -8.54326172 50.40974609 -6.73828125 50.25390625 C-5.83464844 50.17011719 -4.93101563 50.08632812 -4 50 C-4 49.01 -4 48.02 -4 47 C-4.99 46.505 -4.99 46.505 -6 46 C-5.67 44.68 -5.34 43.36 -5 42 C-4.34 42 -3.68 42 -3 42 C-3.33773437 41.0821875 -3.67546875 40.164375 -4.0234375 39.21875 C-11.30382704 19.18715796 -11.30382704 19.18715796 -10 8 C-7.73775523 3.81065784 -5.45943675 2.44630381 -1 1 C-0.67 0.67 -0.34 0.34 0 0 Z " fill="#F4F4F9" transform="translate(77,23)"/>
<path d="M0 0 C20.88701442 17.08652948 34.05317284 40.07617754 37 67 C38.88943583 90.51653754 32.54471976 115.32958919 17.6640625 133.91796875 C15.50309667 136.3481579 13.29028214 138.69199808 11 141 C10.175 141.86625 9.35 142.7325 8.5 143.625 C7.675 144.40875 6.85 145.1925 6 146 C5.42636719 146.58007812 4.85273438 147.16015625 4.26171875 147.7578125 C-0.24819406 152.08936718 -5.05522125 155.49305619 -10.4375 158.625 C-11.01411377 158.97272461 -11.59072754 159.32044922 -12.18481445 159.67871094 C-25.90398825 167.35072318 -39.86342441 169.98262989 -55.42333984 169.72729492 C-58.13147937 169.68740456 -60.83473937 169.70676188 -63.54296875 169.73242188 C-78.07324449 169.7274666 -90.85626646 166.94638398 -103.6875 159.875 C-104.73647461 159.30640259 -104.73647461 159.30640259 -105.80664062 158.72631836 C-126.51730982 147.06122745 -141.69575978 127.44772669 -149 105 C-149.31541748 104.04432129 -149.31541748 104.04432129 -149.63720703 103.06933594 C-156.71188261 80.67459884 -154.54559824 55.21619647 -144.0625 34.25 C-142.76242781 31.7948114 -141.39843777 29.40287125 -140 27 C-139.4946875 26.13117187 -138.989375 25.26234375 -138.46875 24.3671875 C-134.67640753 18.32050812 -129.87840736 13.1811454 -125 8 C-124.45859375 7.38253906 -123.9171875 6.76507812 -123.359375 6.12890625 C-92.53646573 -27.57392131 -34.4051325 -26.764631 0 0 Z M-87 -11 C-88.79244141 -10.36384766 -88.79244141 -10.36384766 -90.62109375 -9.71484375 C-113.52153212 -0.71018069 -130.34349454 16.7827476 -140.19091797 39.04980469 C-148.25430295 58.48562824 -149.05913081 82.14207128 -142 102 C-141.57589844 103.19496094 -141.15179688 104.38992187 -140.71484375 105.62109375 C-133.03656746 125.14829781 -118.57067599 141.30701302 -100 151 C-98.96359375 151.55171875 -97.9271875 152.1034375 -96.859375 152.671875 C-77.336572 162.38519078 -53.77792426 164.67267433 -32.7578125 158.40234375 C-23.25608122 155.00014377 -14.00071562 151.43006104 -7 144 C-5.53166329 142.95406152 -4.03237715 141.94964218 -2.5 141 C1.12687028 138.65214192 4.05602663 136.18930448 7 133 C7.928125 132.13375 8.85625 131.2675 9.8125 130.375 C12.33873788 128.17037709 12.33873788 128.17037709 12 125 C12.99 124.67 13.98 124.34 15 124 C15 123.01 15 122.02 15 121 C15.66 121 16.32 121 17 121 C29.19230405 98.21341234 34.92527344 73.00055956 27.25390625 47.52734375 C26.84011719 46.36332031 26.42632812 45.19929688 26 44 C25.36384766 42.20755859 25.36384766 42.20755859 24.71484375 40.37890625 C15.74918867 17.57767202 -1.75401519 0.55567884 -23.99804688 -9.19091797 C-43.57397672 -17.1024584 -67.06215395 -18.08753996 -87 -11 Z " fill="#000000" transform="translate(154,23)"/>
<path d="M0 0 C1.5625 1.3125 1.5625 1.3125 3 3 C3.886875 3.433125 4.77375 3.86625 5.6875 4.3125 C8 6 8 6 8.5625 8.875 C7.87955578 12.66913457 6.74980532 14.32657816 4 17 C1.75 17.8125 1.75 17.8125 0 18 C-0.1546875 17.0409375 -0.1546875 17.0409375 -0.3125 16.0625 C-0.539375 15.381875 -0.76625 14.70125 -1 14 C-1.99 13.67 -2.98 13.34 -4 13 C-4 12.34 -4 11.68 -4 11 C-13.68902383 16.05738505 -13.68902383 16.05738505 -21 24 C-19.41727399 25.58272601 -17.61965997 25.34735747 -15.4375 25.5625 C-14.61121094 25.64628906 -13.78492188 25.73007812 -12.93359375 25.81640625 C-11.97646484 25.90728516 -11.97646484 25.90728516 -11 26 C-10.505 27.485 -10.505 27.485 -10 29 C-9.01 29.33 -8.02 29.66 -7 30 C-7.50087718 34.34093558 -10.28264698 36.75243176 -13 40 C-14.78170119 43.47855946 -15.22245644 46.10701232 -15 50 C-12.69 49.67 -10.38 49.34 -8 49 C-8.33 50.65 -8.66 52.3 -9 54 C-8.40316406 53.93039063 -7.80632812 53.86078125 -7.19140625 53.7890625 C3.27428905 53.13592847 14.89772046 56.73671501 23.625 62.625 C25.80025256 64.78294285 25.98947569 65.87270593 26.24609375 68.9765625 C25.78397598 77.21602402 25.78397598 77.21602402 23 80 C20.6875 80.265625 20.6875 80.265625 18 80.25 C16.6696875 80.25773437 16.6696875 80.25773437 15.3125 80.265625 C13 80 13 80 11 78 C11 77.01 11 76.02 11 75 C14.3 75.33 17.6 75.66 21 76 C15.55875809 69.83325917 8.06689495 64.87602208 0 63 C-2.75065232 62.83142517 -2.75065232 62.83142517 -5 63 C-4.505 63.9075 -4.01 64.815 -3.5 65.75 C-2 69 -2 69 -2 73 C-2.66 73 -3.32 73 -4 73 C-4 74.65 -4 76.3 -4 78 C-9.94 78 -15.88 78 -22 78 C-22.66 79.32 -23.32 80.64 -24 82 C-22.68 82.66 -21.36 83.32 -20 84 C-20.495 85.485 -20.495 85.485 -21 87 C-21.99 87 -22.98 87 -24 87 C-23.4225 88.010625 -22.845 89.02125 -22.25 90.0625 C-17.88176447 98.84577358 -14.47781112 110.16285439 -16 120 C-17.43377437 123.96396442 -18.59061969 124.77599945 -22.3125 126.8125 C-28.2987013 128.74025974 -28.2987013 128.74025974 -32 128 C-34.86018057 124.83874779 -35.93388802 122.89251171 -36.25 118.625 C-36.1675 117.75875 -36.085 116.8925 -36 116 C-34.68 116 -33.36 116 -32 116 C-31.34 118.64 -30.68 121.28 -30 124 C-29.34 124 -28.68 124 -28 124 C-28.350625 123.4225 -28.70125 122.845 -29.0625 122.25 C-30.14917407 119.64198224 -29.93065133 118.60582371 -29 116 C-28.34 116 -27.68 116 -27 116 C-27.22092598 102.78460934 -29.74677265 91.22338904 -38.15625 80.671875 C-40.29191915 78.73529365 -42.28382841 77.91159183 -45 77 C-45 79.31 -45 81.62 -45 84 C-46.98 84.99 -46.98 84.99 -49 86 C-49.2493357 84.39884424 -49.47378648 82.79379841 -49.6875 81.1875 C-49.81511719 80.29417969 -49.94273438 79.40085937 -50.07421875 78.48046875 C-50 76 -50 76 -48.86328125 74.1640625 C-46.24372953 72.52752914 -44.53858524 72.8403498 -41.5 73.1875 C-40.06140625 73.33251953 -40.06140625 73.33251953 -38.59375 73.48046875 C-36 74 -36 74 -33 76 C-30.36565746 75.67873872 -28.37289903 75.18644952 -26 74 C-26.804375 73.46375 -27.60875 72.9275 -28.4375 72.375 C-31 70 -31 70 -32.1875 67.1875 C-31.90845086 62.44366456 -29.42693048 60.11253319 -26 57 C-23.125 55.0625 -23.125 55.0625 -21 54 C-21.495 51.03 -21.495 51.03 -22 48 C-22.53625 48.350625 -23.0725 48.70125 -23.625 49.0625 C-26.87278698 50.34452118 -28.69296839 50.05543562 -32 49 C-35.25682585 45.74317415 -35.1705542 42.57646186 -35.1875 38.1875 C-35.13951818 36.45786959 -35.08172652 34.72836466 -35 33 C-37.64 32.34 -40.28 31.68 -43 31 C-43 30.34 -43 29.68 -43 29 C-46.22404978 30.66954819 -46.22404978 30.66954819 -46.6875 33.625 C-46.790625 34.40875 -46.89375 35.1925 -47 36 C-48.3950848 33.70221327 -49.07438619 32.5207033 -48.6875 29.8125 C-48 28 -48 28 -47 27 C-48.95524698 24.20913543 -48.95524698 24.20913543 -52 22 C-54.9739411 22.15941644 -57.15152558 22.98613622 -60 24 C-60.66 22.68 -61.32 21.36 -62 20 C-61.34 20 -60.68 20 -60 20 C-59.566875 18.8553125 -59.566875 18.8553125 -59.125 17.6875 C-58 15 -58 15 -56 12 C-53.375 11.8125 -53.375 11.8125 -51 12 C-51 11.34 -51 10.68 -51 10 C-49.09375 10.26953125 -49.09375 10.26953125 -47 11 C-46.21272275 12.9353899 -45.43629767 14.87792201 -44.7734375 16.859375 C-43.63480517 20.01074124 -42.13378573 22.42690544 -40 25 C-37.37233611 25.96219702 -37.37233611 25.96219702 -35 26 C-35 24.35 -35 22.7 -35 21 C-32.83125748 21.50603992 -31.00032373 21.99983813 -29 23 C-28.7215625 22.01 -28.7215625 22.01 -28.4375 21 C-23.77753051 11.27484628 -11.4666491 -1.21985629 0 0 Z " fill="#F1F1F6" transform="translate(142,38)"/>
<path d="M0 0 C3.465 1.485 3.465 1.485 7 3 C7.04898438 3.74765625 7.09796875 4.4953125 7.1484375 5.265625 C7.22320312 6.25046875 7.29796875 7.2353125 7.375 8.25 C7.47941406 9.71179688 7.47941406 9.71179688 7.5859375 11.203125 C7.99096448 13.93896761 8.46513018 15.71088144 10 18 C14.33164977 19.34762437 16.97400671 19.01299665 21 17 C21.495 20.96 21.495 20.96 22 25 C21.45730469 25.31453125 20.91460937 25.6290625 20.35546875 25.953125 C14.76053304 29.06227611 14.76053304 29.06227611 11 34 C10.75322994 37.10293293 10.75322994 37.10293293 12 40 C14.95071844 41.93469849 14.95071844 41.93469849 18 43 C15.8125 45.0625 15.8125 45.0625 13 47 C10.625 46.875 10.625 46.875 8 46 C3.51459621 44.61360246 -0.28392703 43.56129554 -5 44 C-7.76223278 46.76223278 -7.57856291 49.20706617 -8 53 C-9.98 52.34 -11.96 51.68 -14 51 C-14.03867188 50.02160156 -14.03867188 50.02160156 -14.078125 49.0234375 C-14.4421545 43.41407386 -14.84263817 39.15736183 -19 35 C-22.83710078 34.5287771 -25.3435672 34.78118907 -29 36 C-29 33.69 -29 31.38 -29 29 C-27.906875 28.46375 -26.81375 27.9275 -25.6875 27.375 C-21.9456763 25.22705658 -20.36598058 23.18331552 -19 19 C-18.90383904 16.31194193 -18.90383904 16.31194193 -20 14 C-21.9568288 12.17662247 -21.9568288 12.17662247 -24 11 C-23 8 -23 8 -20.75 6.625 C-18 6 -18 6 -15.8125 7.375 C-11.74122783 9.72729059 -7.61668034 9.6291759 -3 9 C-0.23776722 6.23776722 -0.42143709 3.79293383 0 0 Z " fill="#0A0A3A" transform="translate(100,68)"/>
<path d="M0 0 C-5.75 4 -5.75 4 -8 4 C-8 6.31 -8 8.62 -8 11 C-7.01 10.34 -6.02 9.68 -5 9 C-1.625 8.4375 -1.625 8.4375 2 9 C4.50890188 10.9458067 5.8510863 13.05526173 7 16 C7.38283792 19.38173498 7.30649851 22.61489419 7 26 C9.31 26.33 11.62 26.66 14 27 C14.495 28.485 14.495 28.485 15 30 C15.66 29.67 16.32 29.34 17 29 C17.40729228 26.67843403 17.74438677 24.3431213 18 22 C20.70732002 22.07962706 22.47568002 22.53870569 24.52734375 24.34375 C26.14727139 26.15740945 27.58483906 28.02259944 29 30 C29.47695312 30.63550781 29.95390625 31.27101562 30.4453125 31.92578125 C31.78697128 34.03108858 32.5972078 35.52893776 33 38 C31.82930411 41.37034422 30.09939544 44.12994041 28 47 C27.23300781 46.9896875 26.46601562 46.979375 25.67578125 46.96875 C22.98839234 47.00013556 20.61388418 47.40254076 18 48 C17.82984375 47.40832031 17.6596875 46.81664062 17.484375 46.20703125 C16.01761557 41.42445928 14.67950578 37.56800561 11 34 C8.87053397 33.13034494 8.87053397 33.13034494 7 33 C7 34.65 7 36.3 7 38 C5.68 38 4.36 38 3 38 C3 37.34 3 36.68 3 36 C2.34 36 1.68 36 1 36 C0.79375 36.680625 0.5875 37.36125 0.375 38.0625 C-2.69036964 44.61124422 -7.83474828 48.91938574 -13.375 53.375 C-13.90391846 53.81610107 -14.43283691 54.25720215 -14.9777832 54.71166992 C-19.35172514 58.10949305 -22.61465126 58.80624142 -28 59 C-29.6875 57.75 -29.6875 57.75 -31 56 C-32.65261839 54.97695052 -34.31791365 53.97383946 -36 53 C-36.33 52.67 -36.66 52.34 -37 52 C-36.78194532 48.14770069 -36.51531411 45.69300863 -34.1875 42.5625 C-32 41 -32 41 -28 41 C-28.62759865 43.92879371 -29.58622659 46.36095629 -31 49 C-30.649375 48.505 -30.29875 48.01 -29.9375 47.5 C-28 46 -28 46 -24.875 46.25 C-19.16193013 45.88141485 -16.08343217 42.81540766 -12 39 C-9.53354569 36.27975293 -9.53354569 36.27975293 -8 34 C-10.97 33.67 -13.94 33.34 -17 33 C-17.33 31.68 -17.66 30.36 -18 29 C-14.7 29.33 -11.4 29.66 -8 30 C-8 29.01 -8 28.02 -8 27 C-9.98 26.67 -11.96 26.34 -14 26 C-13.21681311 22.08406554 -11.60820142 18.63593365 -10 15 C-9.34 15 -8.68 15 -8 15 C-8.66 10.71 -9.32 6.42 -10 2 C-2.25 -1.125 -2.25 -1.125 0 0 Z " fill="#F6F6F9" transform="translate(79,93)"/>
<path d="M0 0 C0.74056641 0.00902344 1.48113281 0.01804687 2.24414062 0.02734375 C4.05873467 0.05075787 5.87316071 0.08662385 7.6875 0.125 C9.06826751 4.1325935 10.0873116 7.92368118 10.6875 12.125 C10.0275 12.125 9.3675 12.125 8.6875 12.125 C8.6875 13.775 8.6875 15.425 8.6875 17.125 C2.7475 17.125 -3.1925 17.125 -9.3125 17.125 C-9.9725 18.445 -10.6325 19.765 -11.3125 21.125 C-9.9925 21.785 -8.6725 22.445 -7.3125 23.125 C-7.6425 24.115 -7.9725 25.105 -8.3125 26.125 C-9.3025 26.125 -10.2925 26.125 -11.3125 26.125 C-10.735 27.135625 -10.1575 28.14625 -9.5625 29.1875 C-5.19426447 37.97077358 -1.79031112 49.28785439 -3.3125 59.125 C-4.74627437 63.08896442 -5.90311969 63.90099945 -9.625 65.9375 C-15.6112013 67.86525974 -15.6112013 67.86525974 -19.3125 67.125 C-22.17268057 63.96374779 -23.24638802 62.01751171 -23.5625 57.75 C-23.48 56.88375 -23.3975 56.0175 -23.3125 55.125 C-21.9925 55.125 -20.6725 55.125 -19.3125 55.125 C-18.6525 57.765 -17.9925 60.405 -17.3125 63.125 C-16.6525 63.125 -15.9925 63.125 -15.3125 63.125 C-15.663125 62.5475 -16.01375 61.97 -16.375 61.375 C-17.46167407 58.76698224 -17.24315133 57.73082371 -16.3125 55.125 C-15.6525 55.125 -14.9925 55.125 -14.3125 55.125 C-14.53342598 41.90960934 -17.05927265 30.34838904 -25.46875 19.796875 C-27.60441915 17.86029365 -29.59632841 17.03659183 -32.3125 16.125 C-32.3125 18.435 -32.3125 20.745 -32.3125 23.125 C-34.2925 24.115 -34.2925 24.115 -36.3125 25.125 C-36.5618357 23.52384424 -36.78628648 21.91879841 -37 20.3125 C-37.12761719 19.41917969 -37.25523438 18.52585937 -37.38671875 17.60546875 C-37.3125 15.125 -37.3125 15.125 -36.17578125 13.2890625 C-33.55622953 11.65252914 -31.85108524 11.9653498 -28.8125 12.3125 C-27.37390625 12.45751953 -27.37390625 12.45751953 -25.90625 12.60546875 C-23.3125 13.125 -23.3125 13.125 -20.3125 15.125 C-17.91861077 14.84697162 -17.91861077 14.84697162 -15.3125 14.125 C-13.31352872 13.78555205 -11.31374361 13.45078384 -9.3125 13.125 C-9.50721111 11.17500871 -9.50721111 11.17500871 -10.3125 9.125 C-12.2962767 7.84063266 -12.2962767 7.84063266 -14.3125 7.125 C-14.125 4.75 -14.125 4.75 -13.3125 2.125 C-9.05868033 -0.29640504 -4.75375656 -0.11045368 0 0 Z " fill="#F1F1F7" transform="translate(129.3125,98.875)"/>
<path d="M0 0 C1.17755859 0.16242188 1.17755859 0.16242188 2.37890625 0.328125 C4.4375 0.75 4.4375 0.75 6.4375 1.75 C6.1075 3.07 5.7775 4.39 5.4375 5.75 C2.7975 5.42 0.1575 5.09 -2.5625 4.75 C-1.428125 5.1625 -0.29375 5.575 0.875 6 C2.050625 6.5775 3.22625 7.155 4.4375 7.75 C4.78377993 9.08002974 5.1169551 10.41353457 5.4375 11.75 C14.14434255 17.17124159 25.18338618 20.08749311 35.4375 18.75 C38.25919723 17.95036593 40.7463383 16.94607187 43.4375 15.75 C43.4375 14.76 43.4375 13.77 43.4375 12.75 C42.1175 12.09 40.7975 11.43 39.4375 10.75 C39.4375 9.76 39.4375 8.77 39.4375 7.75 C42.99680982 7.42642638 44.85541735 7.3619449 47.875 9.375 C49.4375 11.75 49.4375 11.75 49.4375 14.75 C48.09619768 18.77390696 46.43424003 20.75162999 42.6171875 22.66015625 C40.91006357 23.40313529 39.17520052 24.08165365 37.4375 24.75 C37.9325 30.69 37.9325 30.69 38.4375 36.75 C37.7775 36.75 37.1175 36.75 36.4375 36.75 C36.334375 37.45125 36.23125 38.1525 36.125 38.875 C35.34390997 42.14137647 34.01691257 44.7971852 32.4375 47.75 C34.4175 47.75 36.3975 47.75 38.4375 47.75 C38.9325 49.73 38.9325 49.73 39.4375 51.75 C34.48403013 53.34789351 30.30467585 52.03306814 25.4375 50.75 C24.796875 48.89453125 24.796875 48.89453125 24.4375 46.75 C26.0811814 45.06066078 27.7517876 43.39740076 29.4375 41.75 C31.28808061 38.48808164 32.4375 35.54939118 32.4375 31.75 C30.4575 31.75 28.4775 31.75 26.4375 31.75 C26.4375 30.1 26.4375 28.45 26.4375 26.75 C25.2825 26.853125 24.1275 26.95625 22.9375 27.0625 C13.8264163 27.0625 2.23731481 23.41003459 -5.27734375 18.125 C-7.65055709 15.58587813 -7.5625 13.09825183 -7.5625 9.75 C-7.68625 7.89375 -7.68625 7.89375 -7.8125 6 C-7.5625 2.75 -7.5625 2.75 -6.33203125 1.03125 C-3.98708635 -0.66663505 -2.82365506 -0.42796749 0 0 Z " fill="#F5F5F8" transform="translate(32.5625,71.25)"/>
<path d="M0 0 C5.52677733 -0.19392201 9.75614911 0.2520497 15 2 C14.49912282 6.34093558 11.71735302 8.75243176 9 12 C7.21829881 15.47855946 6.77754356 18.10701232 7 22 C10.465 21.505 10.465 21.505 14 21 C13.67 22.65 13.34 24.3 13 26 C13.59683594 25.93039063 14.19367188 25.86078125 14.80859375 25.7890625 C25.27428905 25.13592847 36.89772046 28.73671501 45.625 34.625 C47.80025256 36.78294285 47.98947569 37.87270593 48.24609375 40.9765625 C47.78397598 49.21602402 47.78397598 49.21602402 45 52 C42.6875 52.265625 42.6875 52.265625 40 52.25 C38.6696875 52.25773437 38.6696875 52.25773437 37.3125 52.265625 C35 52 35 52 33 50 C33 49.01 33 48.02 33 47 C36.3 47.33 39.6 47.66 43 48 C35.8208437 39.86362286 25.89861141 34.66938413 15.03320312 33.85205078 C12.89541904 33.75267645 10.76498621 33.70454974 8.625 33.6875 C7.60768799 33.67904053 7.60768799 33.67904053 6.56982422 33.67041016 C2.64606865 33.72784047 -0.52190635 34.13322657 -4 36 C-4.88693303 38.04105639 -4.88693303 38.04105639 -5 40 C-3.35 40.66 -1.7 41.32 0 42 C0 43.32 0 44.64 0 46 C-6.36 44.56 -6.36 44.56 -9 42.25 C-10.47251358 38.93684443 -10.23013969 37.41705471 -9 34 C-5.82191453 30.42361661 -2.76433722 27.89397056 2 27 C1.94779297 25.93072266 1.94779297 25.93072266 1.89453125 24.83984375 C1.67470824 17.06229647 2.65018635 12.52472048 7 6 C4.69 5.34 2.38 4.68 0 4 C0 2.68 0 1.36 0 0 Z " fill="#F4F4F8" transform="translate(120,66)"/>
<path d="M0 0 C1.38481019 1.02858892 2.76402723 2.0650719 4.125 3.125 C0.98461868 3.125 0.05224316 2.73535085 -2.60546875 1.26171875 C-3.32669922 0.86919922 -4.04792969 0.47667969 -4.79101562 0.07226562 C-5.91540039 -0.55131836 -5.91540039 -0.55131836 -7.0625 -1.1875 C-27.16353244 -12.31137232 -49.77137395 -15.2403855 -72.0078125 -9.0703125 C-81.16780294 -6.32276505 -89.22951107 -2.30650718 -97.37890625 2.671875 C-99.875 4.125 -99.875 4.125 -102.875 5.125 C-103.57338189 6.44199847 -104.23645277 7.77797377 -104.875 9.125 C-106.41552734 10.86083984 -106.41552734 10.86083984 -108.2109375 12.5859375 C-108.86320312 13.22273438 -109.51546875 13.85953125 -110.1875 14.515625 C-111.55453965 15.83088285 -112.92172544 17.14598883 -114.2890625 18.4609375 C-118.04369271 22.12687566 -121.15981358 25.62753737 -123.875 30.125 C-124.205 29.465 -124.535 28.805 -124.875 28.125 C-109.78563735 6.80392654 -91.40963651 -8.46938119 -65.05273438 -13.40332031 C-42.49761619 -16.75123736 -18.93311718 -13.16277108 0 0 Z " fill="#34335A" transform="translate(144.875,21.875)"/>
<path d="M0 0 C2.4375 0.375 2.4375 0.375 5 1 C5.495 1.99 5.495 1.99 6 3 C5.01 3 4.02 3 3 3 C3 4.65 3 6.3 3 8 C1.68 8 0.36 8 -1 8 C-1 7.34 -1 6.68 -1 6 C-1.66 6 -2.32 6 -3 6 C-3.20625 6.680625 -3.4125 7.36125 -3.625 8.0625 C-6.69036964 14.61124422 -11.83474828 18.91938574 -17.375 23.375 C-17.90391846 23.81610107 -18.43283691 24.25720215 -18.9777832 24.71166992 C-23.35254102 28.11012685 -26.61256397 28.81226464 -32 29 C-33.8125 27.6875 -33.8125 27.6875 -35 26 C-35.99 25.34 -36.98 24.68 -38 24 C-37.40574219 23.92523438 -36.81148437 23.85046875 -36.19921875 23.7734375 C-23.7211017 21.79401613 -15.20697336 15.38904771 -7 6 C-6.67 5.34 -6.34 4.68 -6 4 C-4.02 4.33 -2.04 4.66 0 5 C0 3.35 0 1.7 0 0 Z " fill="#7575D5" transform="translate(83,123)"/>
<path d="M0 0 C3.94010774 4.21793585 5.31765704 8.24109495 6.75 13.6875 C6.96462891 14.48824951 7.17925781 15.28899902 7.40039062 16.11401367 C9.16082424 23.00834674 10.45117346 29.25750003 7.8125 36.0625 C5.60962957 38.41729253 4.16842693 38.74310052 1 39 C1.165 37.80375 1.33 36.6075 1.5 35.375 C2.64086575 24.70454972 2.34422172 15.22326847 -1 5 C-1.34499275 3.6696358 -1.68264007 2.33722532 -2 1 C-1.34 0.67 -0.68 0.34 0 0 Z " fill="#6C6CD0" transform="translate(117,125)"/>
<path d="M0 0 C11.01964603 -1.2852287 23.66962277 2.26592379 32.625 8.9375 C35 12 35 12 34.9375 15.875 C34.628125 16.90625 34.31875 17.9375 34 19 C33.5875 18.62488281 33.175 18.24976562 32.75 17.86328125 C22.35292005 8.64979745 12.68042166 4.93805974 -1 3 C-0.67 2.01 -0.34 1.02 0 0 Z " fill="#7475D8" transform="translate(133,92)"/>
<path d="M0 0 C0.43828125 0.36351563 0.8765625 0.72703125 1.328125 1.1015625 C11.36284781 9.05591595 21.48662753 12.88975671 34 15 C33.67 15.99 33.34 16.98 33 18 C22.58482964 18.92992592 9.97945593 15.40897392 1.2890625 9.3984375 C-1.03805257 6.87387024 -1.06327821 4.29046715 -1 1 C-0.67 0.67 -0.34 0.34 0 0 Z " fill="#797ADA" transform="translate(26,80)"/>
<path d="M0 0 C-0.165 1.0725 -0.33 2.145 -0.5 3.25 C-1.98019605 15.61399057 -0.2175257 26.32069805 4 38 C2.02 38.495 2.02 38.495 0 39 C-8.34744942 16.31532829 -8.34744942 16.31532829 -7 5 C-4.21153846 0 -4.21153846 0 0 0 Z " fill="#7B7CD9" transform="translate(74,26)"/>
<path d="M0 0 C1.875 2 1.875 2 3 4 C2.45472656 4.15855469 1.90945312 4.31710938 1.34765625 4.48046875 C-11.2478912 8.37755266 -19.93666858 15.64430305 -29 25 C-28.29223873 17.60067763 -24.23242876 13.94384778 -19 9 C-6.91204362 -0.70531057 -6.91204362 -0.70531057 0 0 Z " fill="#7878DA" transform="translate(142,38)"/>
<path d="M0 0 C0.4125 0.474375 0.825 0.94875 1.25 1.4375 C3.13326435 3.36284249 3.13326435 3.36284249 7 4 C6.34 7.63 5.68 11.26 5 15 C3.35 14.67 1.7 14.34 0 14 C-2.26857146 14.84077872 -2.26857146 14.84077872 -4 16 C-4.33 15.67 -4.66 15.34 -5 15 C-4.68172854 8.8467518 -3.33205384 5.15930917 0 0 Z " fill="#0F1040" transform="translate(117,66)"/>
<path d="M0 0 C1.84499398 1.87617698 3.3683599 3.92737609 5 6 C4.01 6.495 4.01 6.495 3 7 C3 9.31 3 11.62 3 14 C-0.43859819 13.72087372 -1.6928044 13.34760044 -4.01953125 10.71484375 C-4.61121094 9.79832031 -5.20289062 8.88179687 -5.8125 7.9375 C-6.41707031 7.01839844 -7.02164063 6.09929687 -7.64453125 5.15234375 C-8.09183594 4.44207031 -8.53914063 3.73179688 -9 3 C-8 1 -8 1 -5.625 -0.1875 C-3 -1 -3 -1 0 0 Z " fill="#141443" transform="translate(91,60)"/>
<path d="M0 0 C0.99386719 0.00902344 1.98773438 0.01804687 3.01171875 0.02734375 C4.15060547 0.04474609 4.15060547 0.04474609 5.3125 0.0625 C4.9825 2.7025 4.6525 5.3425 4.3125 8.0625 C1.3425 8.7225 -1.6275 9.3825 -4.6875 10.0625 C-5.0175 9.0725 -5.3475 8.0825 -5.6875 7.0625 C-7.70258358 6.32926204 -7.70258358 6.32926204 -9.6875 6.0625 C-9.3575 4.4125 -9.0275 2.7625 -8.6875 1.0625 C-5.53819107 0.01273036 -3.29935544 -0.03881595 0 0 Z " fill="#090A3A" transform="translate(126.6875,98.9375)"/>
<path d="M0 0 C0.33 0.99 0.66 1.98 1 3 C3.00016466 4.20882096 3.00016466 4.20882096 5 5 C4.67 5.99 4.34 6.98 4 8 C-0.76017293 9.80886571 -4.93676791 10.20666253 -10 10 C-10 7.36 -10 4.72 -10 2 C-8.7090864 1.66376204 -7.41723903 1.33110751 -6.125 1 C-5.40570313 0.814375 -4.68640625 0.62875 -3.9453125 0.4375 C-2 0 -2 0 0 0 Z " fill="#131442" transform="translate(71,81)"/>
<path d="M0 0 C2.83022801 0.36397611 3.90783172 0.90764775 5.95703125 2.9609375 C6.87548828 4.15589844 6.87548828 4.15589844 7.8125 5.375 C8.43769531 6.16648437 9.06289062 6.95796875 9.70703125 7.7734375 C10.13371094 8.50820312 10.56039062 9.24296875 11 10 C10.67 10.99 10.34 11.98 10 13 C6.8125 13.875 6.8125 13.875 3 14 C0.78700108 12.21974097 -0.38796831 10.39362281 -2 8 C-1.34 7.67 -0.68 7.34 0 7 C0 4.69 0 2.38 0 0 Z " fill="#0B0C3C" transform="translate(99,116)"/>
<path d="M0 0 C0.66 0 1.32 0 2 0 C1.56826496 6.15222436 0.34594658 9.81917949 -3 15 C-5 15 -5 15 -7.25 13.625 C-9 11 -9 11 -8.8125 8.5078125 C-8.29546988 5.97292873 -7.70308629 3.4893055 -7 1 C-6.67 1.66 -6.34 2.32 -6 3 C-2.75016865 1.91215032 -2.75016865 1.91215032 0 0 Z " fill="#0F0F41" transform="translate(78,108)"/>
<path d="M0 0 C0.99 0.33 1.98 0.66 3 1 C3.125 4.375 3.125 4.375 3 8 C2.34 8.66 1.68 9.32 1 10 C2.98 11.65 4.96 13.3 7 15 C5.68 16.32 4.36 17.64 3 19 C1.9944239 17.54550599 0.99569565 16.08627557 0 14.625 C-0.556875 13.81289062 -1.11375 13.00078125 -1.6875 12.1640625 C-3 10 -3 10 -3 8 C-2.34 7.67 -1.68 7.34 -1 7 C-0.59270772 4.67843403 -0.25561323 2.3431213 0 0 Z " fill="#8282E0" transform="translate(97,115)"/>
<path d="M0 0 C1.32 0.33 2.64 0.66 4 1 C3.5968457 1.39268066 3.19369141 1.78536133 2.77832031 2.18994141 C0.93014113 3.9961889 -0.90993354 5.81049002 -2.75 7.625 C-3.38421875 8.24246094 -4.0184375 8.85992187 -4.671875 9.49609375 C-8.31945419 13.10567732 -11.32834721 16.61471133 -14 21 C-14.33 20.34 -14.66 19.68 -15 19 C-10.30423743 12.36494847 -5.49625431 5.99435236 0 0 Z " fill="#27284D" transform="translate(35,31)"/>
<path d="M0 0 C-0.33 0.99 -0.66 1.98 -1 3 C1.475 3.99 1.475 3.99 4 5 C3.67 5.99 3.34 6.98 3 8 C0.5 6.6875 0.5 6.6875 -2 5 C-2 4.01 -2 3.02 -2 2 C-2.886875 2.350625 -3.77375 2.70125 -4.6875 3.0625 C-8.06203126 4.01755602 -9.69686152 3.97151132 -13 3 C-13 2.01 -13 1.02 -13 0 C-11.20909747 -0.19466332 -9.41723495 -0.38051213 -7.625 -0.5625 C-6.12839844 -0.71912109 -6.12839844 -0.71912109 -4.6015625 -0.87890625 C-2 -1 -2 -1 0 0 Z " fill="#8787E5" transform="translate(73,79)"/>
<path d="M0 0 C0.33 1.32 0.66 2.64 1 4 C2.65 4.33 4.3 4.66 6 5 C6 5.99 6 6.98 6 8 C8.97 7.34 11.94 6.68 15 6 C15.33 6.99 15.66 7.98 16 9 C10.06 9.495 10.06 9.495 4 10 C3.67 9.01 3.34 8.02 3 7 C0.99983534 5.79117904 0.99983534 5.79117904 -1 5 C-0.67 3.35 -0.34 1.7 0 0 Z " fill="#7878D7" transform="translate(116,101)"/>
<path d="M0 0 C2.6486859 3.19668988 4.93992341 6.39486597 7 10 C6.01 11.485 6.01 11.485 5 13 C4.61500109 14.65549531 4.27206865 16.3222433 4 18 C2.6049152 15.70221327 1.92561381 14.5207033 2.3125 11.8125 C3 10 3 10 4 9 C2.7625 7.8553125 2.7625 7.8553125 1.5 6.6875 C-1 4 -1 4 -1 1 C-0.67 0.67 -0.34 0.34 0 0 Z " fill="#7C7CD9" transform="translate(91,56)"/>
<path d="M0 0 C1.65 0 3.3 0 5 0 C6.42500059 3.99000166 7.40075776 7.80530429 8 12 C7.01 12.33 6.02 12.66 5 13 C4.35309078 11.3962669 3.70751236 9.79199694 3.0625 8.1875 C2.70285156 7.29417969 2.34320313 6.40085937 1.97265625 5.48046875 C1.26386514 3.6729091 0.6139753 1.84192591 0 0 Z " fill="#7777D9" transform="translate(132,99)"/>
<path d="M0 0 C0.66 0 1.32 0 2 0 C2.65234375 1.734375 2.65234375 1.734375 3 4 C2.00390625 6.140625 2.00390625 6.140625 0.5625 8.25 C0.08941406 8.95640625 -0.38367188 9.6628125 -0.87109375 10.390625 C-1.24363281 10.92171875 -1.61617188 11.4528125 -2 12 C-3.65 11.67 -5.3 11.34 -7 11 C-6.57847656 10.45730469 -6.15695313 9.91460937 -5.72265625 9.35546875 C-5.17480469 8.64003906 -4.62695312 7.92460937 -4.0625 7.1875 C-3.51722656 6.47980469 -2.97195312 5.77210938 -2.41015625 5.04296875 C-0.83143752 2.95874948 -0.83143752 2.95874948 0 0 Z " fill="#8485E3" transform="translate(109,128)"/>
<path d="M0 0 C0.33 0.66 0.66 1.32 1 2 C1.66 2.33 2.32 2.66 3 3 C1.5625 5.125 1.5625 5.125 -1 7 C-4.12820109 6.75232831 -7.01503209 5.94396421 -10 5 C-10.33 3.68 -10.66 2.36 -11 1 C-7.7 1.33 -4.4 1.66 -1 2 C-0.67 1.34 -0.34 0.68 0 0 Z " fill="#7D7DD8" transform="translate(72,121)"/>
<path d="M0 0 C2.02408755 0.09002398 4.04544287 0.24641038 6.0625 0.4375 C7.71958984 0.59025391 7.71958984 0.59025391 9.41015625 0.74609375 C10.26480469 0.82988281 11.11945313 0.91367187 12 1 C12.33 1.99 12.66 2.98 13 4 C13.66 4.33 14.32 4.66 15 5 C10.38 4.34 5.76 3.68 1 3 C0.67 3.99 0.34 4.98 0 6 C-0.38218767 4.34385343 -0.71395102 2.67542976 -1 1 C-0.67 0.67 -0.34 0.34 0 0 Z " fill="#7F7FD7" transform="translate(119,63)"/>
<path d="M0 0 C2 3 2 3 3.5 6.625 C4.60079098 10.06527351 4.60079098 10.06527351 7 11 C7 11.99 7 12.98 7 14 C5.25 13.9375 5.25 13.9375 3 13 C-1.09825815 7.35104958 -1.09825815 7.35104958 -0.75 2.5625 C-0.5025 1.716875 -0.255 0.87125 0 0 Z " fill="#8484DD" transform="translate(54,77)"/>
<path d="M0 0 C0.66 0 1.32 0 2 0 C1.85892253 1.45880109 1.71197585 2.91703551 1.5625 4.375 C1.48128906 5.18710938 1.40007812 5.99921875 1.31640625 6.8359375 C1 9 1 9 0 11 C-1.32 11 -2.64 11 -4 11 C-3.21681311 7.08406554 -1.60820142 3.63593365 0 0 Z " fill="#8181E4" transform="translate(69,108)"/>
<path d="M0 0 C1.32 0.33 2.64 0.66 4 1 C3.57847656 1.45890625 3.15695313 1.9178125 2.72265625 2.390625 C2.17480469 3.00421875 1.62695312 3.6178125 1.0625 4.25 C0.51722656 4.85328125 -0.02804688 5.4565625 -0.58984375 6.078125 C-2.06212799 8.08467305 -2.57529189 9.57002449 -3 12 C-3.99 11.01 -4.98 10.02 -6 9 C-5.34 8.67 -4.68 8.34 -4 8 C-3.30341637 6.34561387 -2.63903117 4.67745682 -2 3 C-1.34 2.01 -0.68 1.02 0 0 Z " fill="#7D7DDA" transform="translate(86,50)"/>
<path d="M0 0 C0.33 0.66 0.66 1.32 1 2 C0.67 2.66 0.34 3.32 0 4 C1.32 4.66 2.64 5.32 4 6 C3.67 6.99 3.34 7.98 3 9 C2.01 9 1.02 9 0 9 C0 8.01 0 7.02 0 6 C-1.32 5.34 -2.64 4.68 -4 4 C-2.68 2.68 -1.36 1.36 0 0 Z " fill="#7879DD" transform="translate(118,116)"/>
<path d="M0 0 C-0.66 1.65 -1.32 3.3 -2 5 C-3.98 5 -5.96 5 -8 5 C-8.33 4.01 -8.66 3.02 -9 2 C-5.62902617 0.50178941 -3.79557881 0 0 0 Z " fill="#7474C5" transform="translate(146,46)"/>
<path d="M0 0 C2 2 2 2 2.125 5.125 C2.08375 6.07375 2.0425 7.0225 2 8 C1.01 8 0.02 8 -1 8 C-1 11.3 -1 14.6 -1 18 C-1.33 18 -1.66 18 -2 18 C-2.20852314 11.59370576 -2.1583195 6.07027358 0 0 Z " fill="#8C8CD1" transform="translate(78,28)"/>
<path d="M0 0 C0 1.65 0 3.3 0 5 C-2.31 5 -4.62 5 -7 5 C-7 3.68 -7 2.36 -7 1 C-4.50935112 0.31292445 -2.62113708 0 0 0 Z " fill="#8080E0" transform="translate(66,98)"/>
<path d="M0 0 C-5.75 4 -5.75 4 -8 4 C-7.67 6.64 -7.34 9.28 -7 12 C-7.66 12 -8.32 12 -9 12 C-9.33 8.7 -9.66 5.4 -10 2 C-2.25 -1.125 -2.25 -1.125 0 0 Z " fill="#8585CE" transform="translate(79,93)"/>
<path d="M0 0 C0.99 0.33 1.98 0.66 3 1 C3 3.31 3 5.62 3 8 C1.02 8.99 1.02 8.99 -1 10 C-1.125 2.25 -1.125 2.25 0 0 Z " fill="#7777D2" transform="translate(97,115)"/>
<path d="M0 0 C2 0 2 0 4.125 2 C4.74375 2.66 5.3625 3.32 6 4 C5.67 4.99 5.34 5.98 5 7 C4.01 7.33 3.02 7.66 2 8 C1.67 7.01 1.34 6.02 1 5 C0.34 4.67 -0.32 4.34 -1 4 C-0.67 2.68 -0.34 1.36 0 0 Z " fill="#7E7FDA" transform="translate(72,65)"/>
<path d="M0 0 C2 2 2 2 2.1953125 4.3828125 C2.17210938 5.28773437 2.14890625 6.19265625 2.125 7.125 C2.10695313 8.03507812 2.08890625 8.94515625 2.0703125 9.8828125 C2.04710938 10.58148438 2.02390625 11.28015625 2 12 C0.68 11.67 -0.64 11.34 -2 11 C-1.34 7.37 -0.68 3.74 0 0 Z " fill="#8C8CDB" transform="translate(84,107)"/>
<path d="M0 0 C0.33 0.66 0.66 1.32 1 2 C4.465 1.505 4.465 1.505 8 1 C7.67 2.32 7.34 3.64 7 5 C4.69 5 2.38 5 0 5 C0 3.35 0 1.7 0 0 Z " fill="#7B7BE0" transform="translate(126,86)"/>
<path d="M0 0 C1.32 0.66 2.64 1.32 4 2 C3.360625 2.9075 2.72125 3.815 2.0625 4.75 C0.38571047 7.39221381 -0.53689998 8.9898499 -1 12 C-1.66 11.67 -2.32 11.34 -3 11 C-2.69078116 9.54096742 -2.37751201 8.08279278 -2.0625 6.625 C-1.88847656 5.81289062 -1.71445313 5.00078125 -1.53515625 4.1640625 C-1 2 -1 2 0 0 Z " fill="#7F80DB" transform="translate(124,70)"/>
<path d="M0 0 C2.03833424 1.2739589 4.03852126 2.61061923 6 4 C6 4.66 6 5.32 6 6 C4.35 6 2.7 6 1 6 C0.34 4.35 -0.32 2.7 -1 1 C-0.67 0.67 -0.34 0.34 0 0 Z " fill="#6868BE" transform="translate(157,108)"/>
<path d="M0 0 C1.32 0.33 2.64 0.66 4 1 C3.34 2.98 2.68 4.96 2 7 C-0.97 6.505 -0.97 6.505 -4 6 C-2.68 5.67 -1.36 5.34 0 5 C0 3.35 0 1.7 0 0 Z " fill="#7879DA" transform="translate(107,59)"/>
<path d="M0 0 C2.97 0.495 2.97 0.495 6 1 C6.33 2.32 6.66 3.64 7 5 C4.11424181 4.60196439 3.17810487 4.20990931 1.25 1.9375 C0.8375 1.298125 0.425 0.65875 0 0 Z " fill="#8080DF" transform="translate(30,77)"/>
<path d="M0 0 C-0.6875 1.9375 -0.6875 1.9375 -2 4 C-4.625 4.75 -4.625 4.75 -7 5 C-7 4.34 -7 3.68 -7 3 C-4.4385343 0.70351351 -3.52032428 0 0 0 Z " fill="#7A7BDC" transform="translate(79,106)"/>
<path d="M0 0 C1.65 0.33 3.3 0.66 5 1 C2.01353231 2.99097846 -0.59687262 3.94124926 -4 5 C-2.68 3.35 -1.36 1.7 0 0 Z " fill="#7B7BD3" transform="translate(51,139)"/>
<path d="M0 0 C0.66 0 1.32 0 2 0 C2 0.66 2 1.32 2 2 C4.475 2.99 4.475 2.99 7 4 C6.67 4.99 6.34 5.98 6 7 C1.2 4.53846154 1.2 4.53846154 0.1875 1.8125 C0.125625 1.214375 0.06375 0.61625 0 0 Z " fill="#7B7BD7" transform="translate(70,80)"/>
<path d="M0 0 C0.66 0.33 1.32 0.66 2 1 C0.515 3.475 0.515 3.475 -1 6 C-2.32 5.67 -3.64 5.34 -5 5 C-3.35 3.35 -1.7 1.7 0 0 Z " fill="#7071D8" transform="translate(108,134)"/>
<path d="M0 0 C2.9719385 1.12451727 5.33440687 2.22293791 8 4 C7.01 4.66 6.02 5.32 5 6 C3.35 4.02 1.7 2.04 0 0 Z " fill="#7E7ED3" transform="translate(104,112)"/>
<path d="M0 0 C-2.35968744 2.09749995 -3.54616994 2.96905704 -6.75 3.1875 C-7.86375 3.0946875 -7.86375 3.0946875 -9 3 C-7.01532024 -0.96935951 -3.9567243 -1.41311582 0 0 Z " fill="#8787DD" transform="translate(121,80)"/>
</svg>
