<?xml version="1.0" encoding="UTF-8" standalone="no"?>
<!-- Created with Inkscape (http://www.inkscape.org/) -->

<svg
   width="123.0985mm"
   height="158.8092mm"
   viewBox="0 0 123.09849 158.8092"
   version="1.1"
   id="svg1"
   xml:space="preserve"
   inkscape:version="1.3 (0e150ed6c4, 2023-07-21)"
   sodipodi:docname="PBSVG4.svg"
   xmlns:inkscape="http://www.inkscape.org/namespaces/inkscape"
   xmlns:sodipodi="http://sodipodi.sourceforge.net/DTD/sodipodi-0.dtd"
   xmlns:xlink="http://www.w3.org/1999/xlink"
   xmlns="http://www.w3.org/2000/svg"
   xmlns:svg="http://www.w3.org/2000/svg"><sodipodi:namedview
     id="namedview1"
     pagecolor="#ffffff"
     bordercolor="#000000"
     borderopacity="0.25"
     inkscape:showpageshadow="2"
     inkscape:pageopacity="0.0"
     inkscape:pagecheckerboard="false"
     inkscape:deskcolor="#d1d1d1"
     inkscape:document-units="mm"
     showgrid="false"
     inkscape:zoom="1.3380612"
     inkscape:cx="254.099"
     inkscape:cy="217.10517"
     inkscape:window-width="1920"
     inkscape:window-height="986"
     inkscape:window-x="-11"
     inkscape:window-y="-11"
     inkscape:window-maximized="1"
     inkscape:current-layer="layer1"><inkscape:grid
       id="grid4"
       units="mm"
       originx="-163.34581"
       originy="-241.86076"
       spacingx="0.99999998"
       spacingy="1"
       empcolor="#0099e5"
       empopacity="0.30196078"
       color="#0099e5"
       opacity="0.14901961"
       empspacing="5"
       dotted="false"
       gridanglex="30"
       gridanglez="30"
       visible="false" /></sodipodi:namedview><defs
     id="defs1"><linearGradient
       id="linearGradient6"
       inkscape:collect="always"><stop
         style="stop-color:#008dd1;stop-opacity:1;"
         offset="0"
         id="stop6" /><stop
         style="stop-color:#800080;stop-opacity:1"
         offset="1"
         id="stop7" /></linearGradient><linearGradient
       inkscape:collect="always"
       xlink:href="#linearGradient6"
       id="linearGradient7"
       x1="142.63423"
       y1="88.048309"
       x2="8.6641083"
       y2="282.02649"
       gradientUnits="userSpaceOnUse" /></defs><g
     inkscape:label="Layer 1"
     inkscape:groupmode="layer"
     id="layer1"
     transform="translate(-43.218578,-63.99233)"><path
       style="fill:url(#linearGradient7);fill-opacity:1"
       d="m 68.782853,217.64222 c 0.105867,-2.83802 0.121952,-5.16004 0.03574,-5.16004 -0.08621,0 -0.722567,0.403 -1.414128,0.89556 -0.69156,0.49255 -2.269414,1.43823 -3.506341,2.1015 -1.236927,0.66328 -3.226925,1.62314 -4.422217,2.13303 -1.195291,0.5099 -3.278885,1.28582 -4.630208,1.72429 -1.351323,0.43846 -3.528513,1.03783 -4.838201,1.33192 -1.309687,0.2941 -3.155156,0.65518 -4.101042,0.80242 -0.945885,0.14724 -1.937611,0.2686 -2.203835,0.2697 l -0.484043,0.002 0.183819,-0.8599 c 0.1011,-0.47294 0.47958,-1.81239 0.841067,-2.97656 0.361487,-1.16416 1.086366,-3.1287 1.610841,-4.36562 0.524475,-1.23693 1.360963,-2.96334 1.858861,-3.83646 0.497899,-0.87313 1.451732,-2.4079 2.11963,-3.4106 0.667897,-1.0027 2.375576,-3.03934 3.794841,-4.52586 l 2.580483,-2.70276 -3.11015,0.12809 -3.110151,0.12809 -1.373598,-0.29459 c -0.75548,-0.16202 -1.941677,-0.56427 -2.635994,-0.89389 l -1.262396,-0.59931 2.032848,-0.16523 2.032847,-0.16523 1.671319,-0.78664 c 0.919226,-0.43266 2.345471,-1.33859 3.169434,-2.01319 l 1.498113,-1.22655 1.229598,-1.84958 c 0.676279,-1.01727 1.51199,-2.54455 1.857135,-3.39396 0.345146,-0.8494 0.831077,-2.54888 1.079847,-3.77661 l 0.452309,-2.23224 -0.316649,-1.98497 c -0.174157,-1.09173 -0.38339,-3.9495 -0.464963,-6.35059 l -0.148314,-4.36563 0.536658,-2.11667 c 0.295162,-1.16416 0.79454,-2.80313 1.10973,-3.64214 0.31519,-0.83902 0.872063,-1.88082 1.237496,-2.31511 l 0.664424,-0.78962 h 0.505647 0.505647 l -0.0039,0.33073 c -0.0021,0.1819 -0.18754,0.85827 -0.41205,1.50303 l -0.408201,1.17231 0.18178,1.07595 0.18178,1.07594 0.992894,0.99289 0.992893,0.9929 h 1.08442 1.08442 l 0.122089,0.59531 c 0.06715,0.32742 0.198225,1.06499 0.291281,1.63903 0.09305,0.57405 0.472407,1.64209 0.843002,2.37343 l 0.673811,1.3297 1.619637,1.69053 1.619637,1.69054 2.356769,1.55528 2.35677,1.55527 2.029352,0.7826 c 1.116144,0.43043 3.229457,1.02717 4.696251,1.32608 1.466794,0.29891 3.422102,0.5431 4.345128,0.54263 0.923027,-4.6e-4 2.701474,-0.17984 3.952106,-0.39861 1.250631,-0.21877 3.140266,-0.69245 4.199176,-1.05261 1.05892,-0.36016 2.71458,-1.09581 3.67925,-1.63478 0.964668,-0.53897 2.324538,-1.3894 3.021938,-1.88984 0.69739,-0.50045 1.21976,-0.95813 1.16082,-1.01707 -0.0589,-0.059 -0.9272,0.30931 -1.92945,0.81834 -1.00225,0.50903 -2.536648,1.17159 -3.409778,1.47234 -0.87312,0.30076 -2.58536,0.72121 -3.804968,0.93433 -1.219609,0.21312 -3.278457,0.3875 -4.575217,0.3875 H 87.95285 l -2.039367,-0.41235 c -1.121651,-0.22678 -2.666968,-0.64278 -3.434037,-0.92442 -0.767069,-0.28165 -2.017226,-0.82695 -2.778125,-1.21179 -0.7609,-0.38483 -2.03958,-1.14456 -2.84151,-1.68828 -0.801931,-0.54372 -2.258557,-1.83715 -3.236946,-2.87429 l -1.77889,-1.88572 -0.668918,-1.32005 c -0.367905,-0.72602 -0.852464,-2.11148 -1.076799,-3.07879 -0.224334,-0.96731 -0.339227,-1.93766 -0.255317,-2.15632 l 0.152564,-0.39758 -1.603267,0.14538 -1.603267,0.14538 -0.420364,-0.64155 -0.420364,-0.64156 0.125985,-1.31115 0.125985,-1.31115 -0.877827,-0.28971 -0.877827,-0.28971 -0.670117,-0.79639 -0.670117,-0.79638 v -1.5672 -1.5672 l -1.389063,-0.005 c -0.763984,-0.003 -2.189281,-0.17418 -3.167326,-0.38145 l -1.778264,-0.37686 -1.284773,-0.84108 -1.284774,-0.84109 -0.894428,-1.31072 -0.894429,-1.31072 -0.106244,-1.66852 -0.106244,-1.66852 0.972038,-3.14041 c 0.534621,-1.72723 1.57809,-4.98588 2.318819,-7.24145 0.74073,-2.25557 1.531881,-4.3987 1.758113,-4.7625 0.226232,-0.3638 1.113302,-1.4234 1.971267,-2.35465 0.857964,-0.93126 1.785043,-2.06235 2.060174,-2.51354 0.275131,-0.45119 0.500684,-1.04914 0.501228,-1.32876 5.44e-4,-0.27962 -0.312373,-1.29165 -0.695371,-2.24896 l -0.69636,-1.74055 0.145809,-2.38125 c 0.08019,-1.30969 0.224612,-2.58156 0.320929,-2.82639 l 0.175121,-0.44513 -0.839412,-0.43408 c -0.461677,-0.23874 -1.587407,-1.18207 -2.501623,-2.09629 l -1.66221,-1.66221 -0.955428,-1.95649 c -0.525486,-1.07607 -1.135812,-2.66612 -1.356281,-3.53343 l -0.400852,-1.57695 0.0046,-2.12722 c 0.0025,-1.16997 0.179577,-2.960662 0.393444,-3.979312 l 0.38885,-1.85208 0.975143,-1.98139 0.975144,-1.9814 1.740267,-1.7367 c 0.957146,-0.95518 2.127974,-2.02808 2.60184,-2.38423 l 0.861573,-0.64753 -0.415277,-1.45521 -0.415277,-1.45521 -0.150397,-3.57187 -0.150398,-3.57188 4.069726,0.0706 c 2.23835,0.0388 5.895288,0.25717 8.126529,0.48521 2.231241,0.22803 4.100321,0.37109 4.153511,0.3179 0.05319,-0.0532 -0.02884,-0.98591 -0.182291,-2.07271 l -0.279001,-1.97601 0.142671,-3.174997 0.142671,-3.175 0.529687,-1.953951 c 0.291327,-1.074673 0.645768,-2.070033 0.787646,-2.211911 l 0.257959,-0.257959 1.148298,0.773779 c 0.631563,0.425578 1.697652,1.089046 2.369087,1.474373 0.671434,0.385327 3.052684,1.614184 5.291667,2.730793 l 4.070877,2.030198 5.518338,1.81543 5.518332,1.815425 2.32565,1.16423 c 1.27911,0.64032 3.37976,1.85783 4.66812,2.70558 l 2.34248,1.54136 2.32242,2.38841 2.32243,2.38841 1.74076,2.57822 c 0.95741,1.41802 2.0794,3.41039 2.49331,4.42747 0.41391,1.01709 1.18483,3.3097 1.71316,5.0947 0.52833,1.78499 1.25456,4.072982 1.61385,5.084422 0.35929,1.01144 1.06602,2.61878 1.57052,3.57187 0.5045,0.9531 1.8379,3.0705 2.96312,4.70535 1.12521,1.63485 2.75287,3.98773 3.61702,5.22862 l 1.57117,2.25617 0.24866,-0.24866 0.24866,-0.24866 -0.14909,-3.78934 -0.14909,-3.78933 -0.51704,-2.3956 c -0.28438,-1.31758 -0.90821,-3.33521 -1.38629,-4.48361 -0.47808,-1.1484 -1.56477,-3.127832 -2.41486,-4.398742 l -1.54563,-2.31074 -2.17842,-2.01439 -2.17841,-2.0144 1.05833,0.16448 c 0.58209,0.0905 1.83224,0.40361 2.77813,0.69588 0.94588,0.29227 2.67229,1.01965 3.83646,1.6164 l 2.11666,1.08501 1.98757,2.00077 1.98756,2.00078 1.12254,2.248952 1.12254,2.24896 0.39563,1.93553 0.39562,1.93553 v 2.47894 2.47895 l -0.38011,1.80323 c -0.20907,0.99178 -0.73815,2.81527 -1.17573,4.0522 -0.43759,1.23692 -1.28721,3.29697 -1.88805,4.57788 l -1.09243,2.32893 -0.8407,-0.5617 c -0.46238,-0.30894 -1.436,-0.83494 -2.1636,-1.1689 -0.72761,-0.33396 -2.21589,-0.79792 -3.3073,-1.03103 -1.0914,-0.2331 -3.05108,-0.61733 -4.35483,-0.85384 l -2.37045,-0.43002 -1.84406,-0.92865 c -1.01422,-0.51076 -2.4595,-1.39333 -3.21172,-1.96126 -0.75222,-0.56793 -1.86865,-1.62673 -2.48095,-2.35288 -0.6123,-0.72615 -1.5829,-2.25855 -2.15688,-3.40534 -0.57398,-1.14678 -1.04361,-2.20179 -1.04361,-2.34446 v -0.25941 l -1.91823,-0.17644 c -1.05502,-0.097 -2.92823,-0.48362 -4.16267,-0.85905 -1.23445,-0.37544 -2.96086,-1.04287 -3.83646,-1.48319 -0.87561,-0.44031 -2.068262,-1.16053 -2.650342,-1.60048 -0.58209,-0.43995 -1.69551,-1.46638 -2.47427,-2.28097 -0.77877,-0.81459 -1.989957,-2.34545 -2.691536,-3.40193 -0.70158,-1.056472 -1.353792,-2.276862 -1.449359,-2.711972 -0.09557,-0.43512 -0.258347,-0.79113 -0.361732,-0.79113 -0.103385,0 -0.838065,0.16863 -1.632623,0.37474 -0.794559,0.2061 -2.218558,0.51501 -3.164443,0.68645 l -1.719792,0.31172 -3.930663,-0.0288 -3.930664,-0.0288 -2.418248,-0.52779 -2.418247,-0.52779 -2.646923,-1.29927 -2.646922,-1.29926 -1.482137,-1.33031 -1.482136,-1.33032 -1.078298,0.5335 c -0.593064,0.29343 -1.631164,1.12456 -2.306889,1.84697 -0.675726,0.7224 -1.453997,1.82303 -1.729492,2.44583 -0.275496,0.6228 -0.683793,1.83454 -0.907329,2.69275 -0.223535,0.858212 -0.406428,2.143262 -0.406428,2.855662 0,0.71241 0.187716,2.01971 0.417147,2.90511 0.229431,0.8854 0.636061,2.03368 0.903622,2.55173 0.267562,0.51805 0.943049,1.38084 1.501083,1.9173 0.558034,0.53646 1.712744,1.34089 2.566022,1.78762 0.853279,0.44672 2.016777,0.88664 2.585552,0.97759 0.568775,0.0909 1.100495,0.27274 1.181601,0.40397 0.08111,0.13123 -0.23408,1.15512 -0.700413,2.2753 l -0.847878,2.03669 -0.131457,2.12172 -0.131457,2.12172 0.429131,1.0245 0.429131,1.0245 v 1.43139 1.4314 l -0.382393,0.91519 c -0.210315,0.50336 -1.029122,1.54133 -1.819569,2.30661 -0.790448,0.76528 -1.695708,1.904 -2.011688,2.5305 -0.315981,0.6265 -1.33016,3.18634 -2.25373,5.68854 -0.923571,2.5022 -2.006887,5.69415 -2.407369,7.09323 l -0.728149,2.54377 0.50197,1.02316 0.501969,1.02316 1.149701,0.79869 1.149702,0.79869 h 3.612799 3.612798 l 0.874409,0.36884 0.874409,0.36884 0.910573,1.91885 0.910574,1.91885 0.962546,0.96255 c 0.529401,0.5294 1.77853,1.43911 2.775842,2.02157 0.997312,0.58246 2.223361,1.48125 2.724553,1.99731 0.501193,0.51606 1.415804,1.9081 2.03247,3.09341 0.616666,1.18531 1.550561,2.81939 2.075322,3.6313 0.524761,0.81191 1.40252,2.02342 1.950576,2.69225 0.548057,0.66883 1.880563,1.82723 2.961126,2.57422 1.080563,0.74699 2.712696,1.70634 3.626964,2.13187 0.914267,0.42554 2.339376,0.94841 3.166909,1.16194 0.827533,0.21352 2.256283,0.40609 3.175003,0.42791 0.91871,0.0218 2.02758,0.0158 2.46414,-0.0134 l 0.79375,-0.0531 -1.5875,-0.22896 c -0.87312,-0.12593 -2.30573,-0.48147 -3.183559,-0.79008 l -1.596061,-0.56113 -2.372689,-1.64451 -2.372689,-1.64451 -1.384158,-1.70033 c -0.761286,-0.93518 -1.803083,-2.49164 -2.315104,-3.45881 -0.512021,-0.96716 -0.930947,-1.85297 -0.930947,-1.96845 0,-0.11549 0.372526,0.17105 0.827836,0.63675 0.455309,0.4657 1.559948,1.19614 2.454753,1.62319 0.894804,0.42705 2.159388,0.89915 2.810185,1.04911 0.650798,0.14996 2.118206,0.27557 3.260908,0.27913 l 2.077635,0.006 2.37848,-0.79687 c 1.30816,-0.43827 2.933062,-1.11698 3.610902,-1.50824 0.67784,-0.39125 1.82774,-1.15164 2.55535,-1.68973 0.7276,-0.5381 1.92287,-1.61557 2.65615,-2.39437 0.73328,-0.7788 1.7234,-1.98218 2.20026,-2.67417 0.47686,-0.69199 1.38905,-2.36021 2.0271,-3.70714 0.63805,-1.34694 1.34458,-3.15727 1.57006,-4.02295 0.22548,-0.86568 0.40997,-1.90613 0.40997,-2.31212 0,-0.40599 0.0815,-0.73816 0.18105,-0.73816 0.0996,0 0.6721,0.23771 1.27229,0.52826 l 1.09124,0.52826 2.10115,0.1666 2.10114,0.16661 0.79375,0.72585 c 0.43657,0.39923 1.33247,1.03463 1.9909,1.412 0.65843,0.37738 1.95931,0.8814 2.89083,1.12005 l 1.69368,0.4339 1.73938,-0.1008 1.73938,-0.1008 1.22724,-0.59719 1.22723,-0.59719 0.68518,-0.98871 0.68517,-0.98871 0.51996,-3.03688 c 0.28598,-1.67028 0.69399,-3.4536 0.90668,-3.96292 0.2127,-0.50932 0.46897,-1.47739 0.5695,-2.15126 l 0.18278,-1.22521 -0.3081,-1.48413 -0.3081,-1.48413 -0.84169,-1.25363 -0.84168,-1.25364 -1.05834,-0.59314 c -0.58208,-0.32622 -1.57887,-0.67194 -2.21508,-0.76825 l -1.15675,-0.17512 -1.48908,0.33133 c -0.819,0.18223 -2.15107,0.66447 -2.96017,1.07164 l -1.47108,0.74032 -0.93891,1.03926 c -0.5164,0.5716 -1.15051,1.59333 -1.40914,2.27053 l -0.47022,1.23126 h -0.3361 -0.3361 l -0.18195,-1.32291 c -0.10007,-0.72761 -0.098,-1.948 0.005,-2.71198 0.10256,-0.76399 0.35767,-1.80578 0.56691,-2.31511 0.20924,-0.50932 0.82111,-1.38261 1.35971,-1.94065 0.5386,-0.55803 1.43837,-1.2515 1.9995,-1.54104 0.56114,-0.28954 1.81129,-0.6941 2.77813,-0.89903 0.96684,-0.20492 2.3771,-0.37466 3.13393,-0.37718 0.75682,-0.003 2.00697,0.12927 2.77812,0.29289 0.77115,0.16363 1.98675,0.59204 2.70135,0.95204 0.71459,0.35999 1.86594,1.23632 2.55855,1.9474 l 1.25929,1.29286 0.70088,1.48155 c 0.38549,0.81485 0.82277,2.21566 0.97173,3.11292 l 0.27085,1.63137 -0.16056,2.0208 c -0.0883,1.11145 -0.32323,2.56134 -0.52206,3.22199 -0.19882,0.66065 -0.61387,1.5556 -0.92232,1.98879 l -0.56083,0.78761 -0.003,0.88519 c -0.002,0.48686 -0.16216,1.48051 -0.35652,2.20812 -0.19436,0.7276 -0.61787,1.84027 -0.94114,2.47259 -0.32326,0.63231 -1.12119,1.68311 -1.77318,2.3351 l -1.18544,1.18544 -1.71871,0.80428 -1.71872,0.80429 -2.01817,0.22633 -2.01817,0.22633 -0.21477,0.33844 c -0.11813,0.18615 -0.21856,0.87423 -0.22319,1.52907 -0.005,0.65485 -0.18249,4.16719 -0.39524,7.80521 -0.21276,3.63802 -0.38939,7.72393 -0.39251,9.07981 l -0.006,2.46522 0.59162,-0.18777 c 0.32539,-0.10327 1.67041,-0.68847 2.98893,-1.30044 1.31853,-0.61197 3.54804,-1.78991 4.95448,-2.61764 1.40644,-0.82773 3.48446,-2.19764 4.61784,-3.04424 1.13337,-0.8466 2.84456,-2.3604 3.80264,-3.36398 0.95808,-1.00359 2.47401,-2.81443 3.36873,-4.02408 0.89471,-1.20965 2.10254,-3.2008 2.68405,-4.42477 0.58151,-1.22398 1.2964,-2.9727 1.58866,-3.88605 0.29225,-0.91335 0.64967,-2.49408 0.79426,-3.51273 0.14459,-1.01864 0.26325,-2.56645 0.26369,-3.43958 4.4e-4,-0.87312 -0.22222,-2.59953 -0.4948,-3.83646 -0.27258,-1.23692 -0.57564,-2.49207 -0.67348,-2.78922 l -0.17787,-0.54026 2.06698,-0.89885 2.06698,-0.89884 2.01305,-2.00048 2.01304,-2.00047 1.08528,-2.24896 c 0.59691,-1.23693 1.28069,-3.0824 1.51953,-4.10104 l 0.43424,-1.85209 -0.12475,-3.43958 -0.12474,-3.43958 -0.45438,-1.32292 c -0.24991,-0.7276 -0.89047,-2.20653 -1.42345,-3.28651 l -0.96907,-1.96359 -1.92211,-2.04622 c -1.05716,-1.12541 -2.52258,-2.43153 -3.25648,-2.90247 -0.73391,-0.47095 -2.4288,-1.30924 -3.76643,-1.86287 l -2.43206,-1.0066 0.0926,-3.52004 0.0925,-3.520032 -0.28187,-1.52068 c -0.15503,-0.83637 -0.6379,-2.4098 -1.07304,-3.49651 -0.43514,-1.08671 -1.33316,-2.79853 -1.99559,-3.80404 l -1.20444,-1.82822 -2.08002,-1.98724 c -1.14402,-1.09299 -2.78018,-2.43631 -3.63591,-2.98515 -0.85574,-0.54885 -2.50839,-1.45137 -3.67255,-2.00561 -1.16417,-0.55423 -3.15707,-1.30513 -4.42866,-1.66866 -1.2716,-0.36354 -3.35519,-0.84345 -4.63021,-1.06648 -1.27502,-0.22303 -3.25452,-0.40589 -4.39889,-0.40636 l -2.08068,-8.4e-4 -1.88808,-1.16493 c -1.03843,-0.64072 -2.51315,-1.42928 -3.27713,-1.75238 -0.76398,-0.32309 -1.38906,-0.66949 -1.38906,-0.76977 0,-0.10028 1.45851,-0.35351 3.24114,-0.56273 l 3.24115,-0.3804 3.75229,0.0487 3.7523,0.0487 2.84791,0.68631 c 1.56634,0.37747 3.92594,1.11314 5.24353,1.63481 1.3176,0.52168 3.05048,1.31254 3.85084,1.75746 0.80037,0.44492 1.99099,1.17513 2.64584,1.62268 0.65484,0.44756 2.02246,1.51731 3.03915,2.37722 1.01669,0.85991 2.33969,2.11058 2.94,2.77925 0.60031,0.66868 1.69648,2.14344 2.43595,3.27726 0.73946,1.13382 1.71282,3.01664 2.16302,4.18405 0.45021,1.16741 1.01513,2.85912 1.25539,3.75935 l 0.43683,1.63678 0.0164,2.519062 0.0164,2.51906 2.17799,1.29276 c 1.1979,0.71101 2.9243,1.92319 3.83646,2.69372 0.91216,0.77053 2.33421,2.1927 3.16012,3.16037 l 1.50166,1.75941 1.0849,2.15593 c 0.59669,1.18577 1.32055,2.98938 1.60857,4.00802 0.28803,1.01865 0.64773,3.17995 0.79934,4.8029 l 0.27566,2.95081 -0.2707,2.63786 -0.2707,2.63787 -0.66118,2.08424 -0.66117,2.08424 -1.18051,2.01088 c -0.64928,1.10599 -1.80189,2.69078 -2.56136,3.52177 -0.75947,0.83098 -2.11581,2.03533 -3.01409,2.67632 l -1.63323,1.16545 0.1173,3.51487 0.11731,3.51487 -0.4402,2.33873 c -0.24211,1.2863 -0.80322,3.42942 -1.2469,4.7625 -0.44369,1.33307 -1.179,3.13815 -1.63402,4.01127 -0.45503,0.87313 -1.23812,2.24235 -1.7402,3.04271 -0.50208,0.80037 -1.57382,2.28629 -2.38164,3.30205 -0.80782,1.01577 -2.24549,2.61261 -3.19483,3.54855 -0.94934,0.93593 -2.66896,2.4041 -3.82137,3.26259 -1.15241,0.85849 -3.07888,2.14186 -4.28104,2.85192 -1.20217,0.71006 -3.7121,1.99195 -5.57763,2.84864 -1.86553,0.85669 -4.15422,1.83758 -5.08597,2.17974 l -1.69411,0.62212 -1.35057,1.34168 c -0.74282,0.73792 -3.73094,3.62219 -6.64028,6.4095 -2.90933,2.78731 -6.178,5.80559 -7.26371,6.7073 -1.08571,0.90171 -3.22883,2.62271 -4.7625,3.82445 -1.53366,1.20174 -3.97911,3.01667 -5.434312,4.03317 -1.45521,1.0165 -3.95553,2.66022 -5.556255,3.65272 -1.600729,0.99249 -4.577292,2.69173 -6.614583,3.77608 -2.037292,1.08434 -5.543434,2.80487 -7.791428,3.82339 -2.247993,1.01853 -5.224556,2.26713 -6.614583,2.77468 -1.390028,0.50755 -2.989616,1.08949 -3.554641,1.29319 l -1.027317,0.37038 z m 64.700687,-95.20008 c 0,-0.19046 -0.42417,-1.05366 -0.94261,-1.91823 -0.51844,-0.86456 -1.38164,-2.02703 -1.91823,-2.58327 -0.53659,-0.55623 -1.74952,-1.58348 -2.69541,-2.28277 -0.94588,-0.69928 -2.19604,-1.51008 -2.77812,-1.80177 -0.58209,-0.29168 -2.23507,-0.90618 -3.67331,-1.36554 -1.43823,-0.45936 -2.74792,-0.78496 -2.91041,-0.72356 l -0.29545,0.11163 1.98437,1.9563 1.98438,1.95629 1.98437,1.01903 c 1.09141,0.56047 3.11547,1.7687 4.49792,2.68497 1.38245,0.91626 2.93026,2.02723 3.43958,2.46882 0.50933,0.44159 1.01534,0.80773 1.12448,0.81364 0.10914,0.006 0.19844,-0.14508 0.19844,-0.33554 z m -9.92107,-13.73577 c -0.5497,-0.62231 -1.72726,-1.82052 -2.61679,-2.66268 -0.88954,-0.84217 -2.21266,-2.04372 -2.94026,-2.67011 -0.72761,-0.6264 -2.51355,-1.88003 -3.96875,-2.78586 -1.45521,-0.905832 -3.52117,-2.063132 -4.59102,-2.571782 -1.06985,-0.50865 -3.21298,-1.34929 -4.7625,-1.8681 -1.54953,-0.5188 -4.12701,-1.21027 -5.727726,-1.53658 -1.60073,-0.32631 -3.00148,-0.5412 -3.11278,-0.47752 -0.1113,0.0637 0.16611,0.78717 0.61646,1.60777 0.45034,0.82059 1.29494,2.08999 1.87688,2.82087 0.58194,0.73088 1.65105,1.835042 2.375816,2.453682 0.72476,0.61865 2.29294,1.60362 3.48485,2.18883 l 2.1671,1.06402 5.89308,1.45913 c 3.2412,0.80252 6.65701,1.74666 7.59069,2.0981 0.93369,0.35144 2.32992,0.99298 3.10275,1.42566 0.77283,0.43268 1.45161,0.74154 1.5084,0.68636 0.0568,-0.0552 -0.3465,-0.60948 -0.8962,-1.23179 z m -8.22382,-10.458042 c -0.0975,-0.5457 -0.41499,-1.70656 -0.70563,-2.57968 -0.29064,-0.87313 -1.00445,-2.57337 -1.58626,-3.77831 -0.5818,-1.20494 -1.53194,-2.93135 -2.11141,-3.83646 l -1.05358,-1.64565 -2.55276,-2.51354 c -1.40402,-1.38245 -2.90995,-2.78198 -3.34651,-3.11006 -0.43656,-0.32809 -1.15134,-0.87951 -1.5884,-1.22539 -0.43706,-0.34588 -1.92534,-1.22924 -3.307286,-1.96303 l -2.51264,-1.33416 -2.98619,-0.84836 c -1.642401,-0.4666 -3.060041,-0.77451 -3.15031,-0.68424 -0.09027,0.0903 0.740499,1.08805 1.846152,2.21728 1.105652,1.12924 2.926148,3.18426 4.045548,4.56671 1.1194,1.38245 2.59183,3.34698 3.27206,4.36562 0.680236,1.01865 1.551826,2.39974 1.936876,3.06909 l 0.7001,1.21701 2.85642,1.59978 c 1.57103,0.87988 3.63033,2.16777 4.57621,2.86197 0.94589,0.6942 2.4937,1.91384 3.43958,2.7103 0.94589,0.79646 1.75948,1.55053 1.80799,1.67571 0.0485,0.12518 0.20273,0.2276 0.34272,0.2276 h 0.25452 z m -27.367384,-5.40648 c 1.816841,-0.29364 4.019497,-0.77328 4.894792,-1.06587 l 1.591445,-0.53197 2.248961,-0.16893 2.24896,-0.16893 -3.175,-1.36385 c -1.746255,-0.75012 -4.214419,-1.72819 -5.484813,-2.1735 -1.270395,-0.44531 -3.532583,-1.16284 -5.027084,-1.59451 -1.494501,-0.43167 -3.610244,-0.97645 -4.70165,-1.21064 -1.091406,-0.23419 -3.175,-0.64984 -4.630208,-0.92367 -1.455209,-0.27384 -4.37224,-0.63287 -6.482292,-0.79785 -2.110052,-0.16499 -3.981474,-0.34764 -4.158714,-0.4059 -0.177241,-0.0583 -0.392338,0.007 -0.477994,0.14606 -0.08566,0.13859 0.295016,1.11566 0.845937,2.17125 l 1.001676,1.91927 1.866425,1.85209 1.866426,1.85208 1.578643,0.83405 c 0.868253,0.45872 2.41208,1.09674 3.430726,1.41781 l 1.852083,0.58377 2.248959,0.20191 c 1.236927,0.11105 2.903802,0.14776 3.704167,0.0816 0.800364,-0.0662 2.941714,-0.36059 4.758555,-0.65423 z m 10.322698,-5.09957 c 0,-0.0666 -0.80367,-1.12278 -1.78594,-2.34698 -0.98227,-1.22419 -2.797969,-3.28733 -4.034896,-4.58475 -1.236928,-1.29741 -3.141928,-3.12854 -4.233334,-4.06917 -1.091406,-0.94063 -2.043906,-1.77261 -2.116667,-1.84885 -0.07276,-0.0762 -0.906198,-0.731087 -1.852083,-1.455211 -0.945886,-0.724124 -1.999277,-1.473667 -2.340869,-1.665651 -0.341593,-0.191984 -0.679152,-0.290987 -0.750132,-0.220007 -0.07098,0.07098 0.131773,1.180558 0.450561,2.465728 l 0.579616,2.336671 1.027525,1.9883 1.027525,1.9883 1.921116,1.9949 1.921116,1.9949 2.116667,0.57675 c 1.164167,0.31722 3.426354,1.10305 5.027085,1.7463 1.60073,0.64325 2.94018,1.18088 2.97656,1.19473 0.0364,0.0139 0.0662,-0.0293 0.0662,-0.096 z m 41.401306,43.059132 c -0.28775,-0.54057 -1.16141,-1.73789 -1.94145,-2.66072 -0.78005,-0.92283 -1.37536,-1.70958 -1.32292,-1.74833 0.0524,-0.0387 0.65299,-0.277 1.33455,-0.52945 0.68156,-0.25244 2.05078,-1.06131 3.04271,-1.79748 0.99193,-0.73617 2.35098,-1.92483 3.02012,-2.64148 0.66914,-0.71665 1.49316,-1.89344 1.83117,-2.61509 0.338,-0.72165 0.72341,-1.31209 0.85648,-1.31209 h 0.24193 l -0.18993,2.05052 -0.18992,2.05052 -0.62805,1.93145 c -0.34542,1.06229 -0.91242,2.49101 -1.26,3.17492 -0.34757,0.68391 -1.38863,2.09782 -2.31345,3.14202 -0.92483,1.04419 -1.74373,1.90743 -1.81978,1.9183 -0.076,0.0109 -0.37371,-0.42252 -0.66146,-0.96309 z"
       id="path4" /></g></svg>
