<?xml version="1.0" encoding="UTF-8"?>
<svg version="1.1" xmlns="http://www.w3.org/2000/svg" width="500" height="500">
<path d="M0 0 C165 0 330 0 500 0 C500 165 500 330 500 500 C335 500 170 500 0 500 C0 335 0 170 0 0 Z " fill="#500000" transform="translate(0,0)"/>
<path d="M0 0 C2.59610196 1.71257101 5.13307411 3.47671613 7.640625 5.31640625 C9.97191067 7.03868355 9.97191067 7.03868355 12.5 8.43359375 C21.9371295 14.3465452 29.88103042 24.82154563 36 34 C36.65300916 37.62782865 36.53777587 40.01855903 34.75 43.28125 C31.11258131 48.3332204 27.51045464 51.15587652 21.95703125 53.87109375 C19.31925948 55.39268265 18.18495178 57.23511251 17 60 C15.515 59.505 15.515 59.505 14 59 C10.52306681 51.24376441 10.32020048 43.38041957 10 35 C6.13406403 44.33347398 2.33018411 53.67377293 5.9921875 63.72265625 C7.77948121 67.40270511 9.8715151 70.79753895 12.0625 74.25 C14.04794983 77.59599713 14.89170927 81.06142795 15.875 84.8125 C17.6514603 91.37013666 20.24013023 96.3928493 24 102 C31.43679655 113.46584582 35.52722954 124.37571581 36.57299805 138.02099609 C37.05165889 142.80775523 37.05165889 142.80775523 39.59741211 146.75 C40.83851509 147.75249713 42.10024344 148.73008537 43.3828125 149.67895508 C45.65043881 151.53132916 46.198354 153.30611405 46.8125 156.125 C47.58354733 159.58929069 47.58354733 159.58929069 49.01074219 162.8046875 C51.41836207 168.14755966 50.714813 174.61628833 49.07080078 180.09863281 C47.83466576 183.16503722 46.48936309 186.14279774 45.0625 189.125 C44.59392578 190.15109375 44.12535156 191.1771875 43.64257812 192.234375 C42.13979398 195.51239049 40.61271397 198.77457205 39 202 C38.9310528 203.37342831 38.91532292 204.75002102 38.9375 206.125 C38.958125 207.40375 38.97875 208.6825 39 210 C42.56071312 211.04882391 46.05527897 211.30386953 49.75 211.5625 C50.92046875 211.64628906 52.0909375 211.73007812 53.296875 211.81640625 C54.18890625 211.87699219 55.0809375 211.93757812 56 212 C55.67 213.32 55.34 214.64 55 216 C53.80761719 216.19335938 52.61523438 216.38671875 51.38671875 216.5859375 C49.82024888 216.84857916 48.25384605 217.11162088 46.6875 217.375 C45.90181641 217.50132812 45.11613281 217.62765625 44.30664062 217.7578125 C43.54931641 217.88671875 42.79199219 218.015625 42.01171875 218.1484375 C41.31522217 218.26364746 40.61872559 218.37885742 39.90112305 218.49755859 C37.69171241 218.97175121 37.69171241 218.97175121 35 221 C21.61558332 223.08333064 7.49949211 222.09970083 -6 222 C-6.99 220.02 -6.99 220.02 -8 218 C-11.96952899 218.11798944 -15.93880781 218.24221799 -19.90795898 218.37231445 C-21.25914147 218.41571223 -22.61038053 218.4573837 -23.96166992 218.49731445 C-25.90036701 218.55489952 -27.83886276 218.61914298 -29.77734375 218.68359375 C-30.94515381 218.72025146 -32.11296387 218.75690918 -33.31616211 218.79467773 C-35.91779795 218.70076188 -35.91779795 218.70076188 -37 220 C-38.92667507 220.08748207 -40.85651861 220.10697334 -42.78515625 220.09765625 C-43.95498047 220.09443359 -45.12480469 220.09121094 -46.33007812 220.08789062 C-47.56177734 220.07951172 -48.79347656 220.07113281 -50.0625 220.0625 C-51.91584961 220.05573242 -51.91584961 220.05573242 -53.80664062 220.04882812 C-56.87114117 220.03699608 -59.93554721 220.02051173 -63 220 C-64.04736328 218.14086914 -64.04736328 218.14086914 -65 216 C-64.2421875 213.74609375 -64.2421875 213.74609375 -62.875 211.4375 C-62.43929687 210.67308594 -62.00359375 209.90867187 -61.5546875 209.12109375 C-59.9180933 206.88825292 -58.23916395 205.59742418 -56 204 C-51.24635206 195.7436641 -52.70548937 183.19463314 -52.4375 174 C-52.40523315 172.96034592 -52.40523315 172.96034592 -52.37231445 171.89968872 C-52.0365386 161.0099098 -51.91139008 150.13189218 -52.03686523 139.23632812 C-52.07242977 135.08780958 -52.04332704 131.26619049 -51.375 127.16015625 C-50.93485328 123.45100315 -51.81781736 121.52112465 -53 118 C-54.72991634 101.48285362 -53.04975786 86.42316404 -43.4296875 72.5390625 C-39.45499796 65.48018763 -38.53685051 58.75250092 -38.6875 50.75 C-38.68427734 49.87859375 -38.68105469 49.0071875 -38.67773438 48.109375 C-38.7157507 43.5750648 -39.0376852 40.15770147 -41 36 C-41.49313497 33.33427985 -41.72523632 30.70184283 -42 28 C-42.2475 29.11375 -42.495 30.2275 -42.75 31.375 C-46.20813995 45.13398236 -46.20813995 45.13398236 -51 49 C-51.66 49 -52.32 49 -53 49 C-53.165 48.071875 -53.33 47.14375 -53.5 46.1875 C-54.5624689 42.33605022 -56.59362035 39.66055298 -59 36.5 C-63.26534701 30.85923312 -65.6659346 26.25755844 -65 19 C-59.99872558 12.27623228 -51.05773257 8.16388078 -44 4 C-43.32710937 3.56300781 -42.65421875 3.12601563 -41.9609375 2.67578125 C-37.91232759 0.09503228 -34.05935338 -0.77816154 -29.40234375 -1.5625 C-26.79372507 -1.98141967 -26.79372507 -1.98141967 -23.5625 -3.125 C-14.9437315 -5.24189051 -7.63510191 -4.53622635 0 0 Z " fill="#DCE7EF" transform="translate(260,156)"/>
<path d="M0 0 C0.66 0 1.32 0 2 0 C2.59537787 8.74543935 -2.14673163 16.43001239 -7.45703125 23.07421875 C-13.87480683 29.81147364 -20.92048579 34.51708989 -29 39 C-28.22474976 38.63032104 -28.22474976 38.63032104 -27.43383789 38.25317383 C-15.85462543 32.77487799 -4.48455394 27.95266794 8 25 C8.65484375 24.83773926 9.3096875 24.67547852 9.984375 24.50830078 C20.46429162 22.00952145 30.95523016 21.71656168 41.6875 21.6875 C42.96963379 21.68194092 44.25176758 21.67638184 45.57275391 21.6706543 C57.9571878 21.76340675 70.0950694 22.93723091 81.9375 26.6875 C82.77958008 26.94877686 83.62166016 27.21005371 84.48925781 27.47924805 C104.31639389 33.81052374 122.15061475 43.52330694 138 57 C138.93972656 57.79792969 139.87945312 58.59585938 140.84765625 59.41796875 C146.00836997 63.94040415 150.69992411 68.65344547 155 74 C156.02867187 75.27230469 156.02867187 75.27230469 157.078125 76.5703125 C182.86610689 109.66188367 192.92291857 149.21395012 187.98217773 190.68554688 C187.02700626 197.68961702 185.28010996 204.30791258 183 211 C182.74557129 211.74958984 182.49114258 212.49917969 182.22900391 213.27148438 C178.89935021 222.97404458 175.38303517 232.22545549 170 241 C169.34 240.34 168.68 239.68 168 239 C168.50789063 237.98164063 169.01578125 236.96328125 169.5390625 235.9140625 C173.23096485 228.37901674 176.62775448 220.83141889 179.3125 212.875 C179.54211426 212.20936035 179.77172852 211.5437207 180.00830078 210.85791016 C184.17304547 198.04682647 185.47273289 185.71328123 185.33618164 172.34716797 C185.3124563 169.87043856 185.31566665 167.39478439 185.32226562 164.91796875 C185.27247357 135.00133453 175.55002494 105.68798148 157 82 C156.28328125 81.06414062 155.5665625 80.12828125 154.828125 79.1640625 C130.59278427 48.48315243 96.4901739 30.974364 58.1015625 25.59375 C41.47972182 23.79679425 24.49504734 24.79453708 8.25 28.625 C7.11892822 28.89151367 5.98785645 29.15802734 4.82250977 29.43261719 C-14.02971096 34.05672147 -30.35745629 42.58297459 -46 54 C-45.11803955 53.85997559 -44.2360791 53.71995117 -43.32739258 53.57568359 C-36.34760536 52.54652782 -29.50701719 51.82936494 -22.44921875 51.7265625 C-21.73122101 51.71542419 -21.01322327 51.70428589 -20.27346802 51.69281006 C-17.33455199 51.65422258 -14.39595347 51.62686088 -11.45678711 51.61914062 C-3.38696909 51.58371172 3.77556679 51.45332456 11.20385742 47.85302734 C13 47 13 47 15 47 C11.41507727 54.93804319 4.5501285 57.93326097 -3.23046875 61.01953125 C-8.28135848 62.80764595 -12.81739145 63.17264869 -18.16796875 63.24609375 C-19.80013519 63.27905103 -21.43229652 63.31226234 -23.06445312 63.34570312 C-25.62048618 63.39291476 -28.17650139 63.43733014 -30.73266602 63.47680664 C-33.21132112 63.51692055 -35.68955379 63.56838079 -38.16796875 63.62109375 C-38.9182988 63.6295079 -39.66862885 63.63792206 -40.44169617 63.64659119 C-48.40998421 63.82895144 -57.56695888 64.9387103 -64 70 C-68.2743627 74.61349627 -73.00471809 80.01415427 -75 86 C-74.57074219 85.59910156 -74.14148438 85.19820313 -73.69921875 84.78515625 C-68.41197492 80.2576329 -62.75408249 77.20221881 -56.5 74.25 C-55.308302 73.68551147 -55.308302 73.68551147 -54.0925293 73.10961914 C-40.83570562 67 -40.83570562 67 -34 67 C-35.57159148 70.85754273 -38.01077487 73.14362932 -41 76 C-41.70576172 76.78890625 -41.70576172 76.78890625 -42.42578125 77.59375 C-51.04269133 87.00179078 -62.29876056 91.8507241 -74.02026367 96.21069336 C-83.30127867 99.6101522 -83.30127867 99.6101522 -89.23046875 107.16015625 C-89.90363179 108.78580516 -90.5552836 110.42049352 -91.1875 112.0625 C-91.52845703 112.90852783 -91.86941406 113.75455566 -92.22070312 114.6262207 C-94.59621373 120.63334483 -96.63585541 126.67662145 -98 133 C-97.45085937 132.23429687 -97.45085937 132.23429687 -96.890625 131.453125 C-93.27387484 126.59634622 -89.38639348 122.27999046 -85.0625 118.0625 C-77.95359302 111.10068148 -71.62724557 103.86888734 -67 95 C-66.01 95.495 -66.01 95.495 -65 96 C-63.99899676 107.10001367 -66.92540242 116.47365226 -73.75 125.3125 C-78.75181287 131.05782559 -84.35320699 136.20798049 -89.97167969 141.34301758 C-98.49678641 148.5714688 -98.49678641 148.5714688 -101.93554688 158.78613281 C-101.95681641 159.51670898 -101.97808594 160.24728516 -102 161 C-102.03673828 161.7950293 -102.07347656 162.59005859 -102.11132812 163.40917969 C-103.10025421 190.89922065 -96.83031065 217.06794688 -83 241 C-82.65356445 241.5995752 -82.30712891 242.19915039 -81.95019531 242.81689453 C-63.2662073 274.53522916 -32.91864778 297.81044882 2.53271484 307.70703125 C15.71617478 311.09313165 28.38550254 312.23800574 42 312.25 C43.03462372 312.25101212 43.03462372 312.25101212 44.09014893 312.25204468 C59.75678159 312.22772678 73.64179984 309.6941178 88.5859375 304.98828125 C92 304 92 304 95 304 C95 304.66 95 305.32 95 306 C92.48379598 306.95166101 89.96297095 307.88598291 87.4375 308.8125 C86.40979492 309.20405273 86.40979492 309.20405273 85.36132812 309.60351562 C72.57358171 314.24839213 60.03782676 315.49637603 46.56689453 315.39111328 C44.1338661 315.3750585 41.70250923 315.39104524 39.26953125 315.41015625 C-0.31464556 315.46185 -34.64055407 298.97509362 -63 272 C-63.76957031 271.30648438 -64.53914063 270.61296875 -65.33203125 269.8984375 C-80.13436835 256.08292288 -90.08546636 237.34561778 -96.7734375 218.4609375 C-97.46670243 216.5047823 -98.19550384 214.55808756 -99.03515625 212.66015625 C-100.52112424 208.56321618 -101.24397131 204.33565547 -102.0625 200.0625 C-102.23587891 199.18142578 -102.40925781 198.30035156 -102.58789062 197.39257812 C-102.92318813 195.67755064 -103.25246441 193.96133308 -103.57519531 192.24389648 C-103.90047179 190.52572633 -104.25129014 188.81237398 -104.61328125 187.1015625 C-104.97460739 184.20365384 -105.05592493 181.46804407 -105.0703125 178.55078125 C-105.13859084 166.34749143 -105.2857319 158.69994531 -113 149 C-119.15663672 136.09605293 -118.83252859 119.99347944 -120 106 C-120.11569899 104.63800498 -120.23156032 103.27602374 -120.34765625 101.9140625 C-120.57007153 99.27640524 -120.7884708 96.63854841 -121 94 C-117.12043359 95.2931888 -115.81948814 97.62513329 -113.625 100.875 C-113.22651855 101.46216797 -112.82803711 102.04933594 -112.41748047 102.65429688 C-107.54118986 110.0034925 -104.28604458 117.20341068 -102.3671875 125.84375 C-102.1079248 127.00068359 -101.84866211 128.15761719 -101.58154297 129.34960938 C-101.38963379 130.22423828 -101.19772461 131.09886719 -101 132 C-101.0314209 130.68116821 -101.0314209 130.68116821 -101.06347656 129.33569336 C-102.05786864 81.05418189 -102.05786864 81.05418189 -91 60 C-89.515 59.505 -89.515 59.505 -88 59 C-88 71.87 -88 84.74 -88 98 C-84.84972002 93.01051244 -84.84972002 93.01051244 -85.375 88 C-85.68549555 77.97720356 -80.17305764 68.8539962 -76 60 C-75.01862304 57.87601986 -74.03888323 55.75128035 -73.0625 53.625 C-72.52302734 52.49964844 -72.52302734 52.49964844 -71.97265625 51.3515625 C-69.25002087 44.76912676 -68.31513402 38.07992896 -67.375 31.0625 C-67.2409375 30.09248047 -67.106875 29.12246094 -66.96875 28.12304688 C-66.64133338 25.7492764 -66.31853591 23.37497563 -66 21 C-65.01 21 -64.02 21 -63 21 C-61.14830002 29.46491418 -60.7814489 37.73703676 -60.75 46.375 C-60.74097656 47.40882813 -60.73195312 48.44265625 -60.72265625 49.5078125 C-60.74424813 55.06412367 -61.13792719 59.75368375 -63 65 C-58.2751439 61.23073277 -55.67681158 57.90214613 -53.9375 52.0625 C-49.0999412 36.01693459 -33.32643203 27.53429044 -19.74926758 19.23535156 C-8.48340531 12.45700892 -8.48340531 12.45700892 -1 2 C-0.67 1.34 -0.34 0.68 0 0 Z " fill="#D3D8E0" transform="translate(216,92)"/>
<path d="M0 0 C2.00956303 -0.00216626 4.01908715 -0.0206184 6.02856445 -0.03930664 C18.62695465 -0.05784277 30.85162413 1.05309337 42.91333008 4.87280273 C43.75541016 5.13407959 44.59749023 5.39535645 45.46508789 5.66455078 C65.29222396 11.99582648 83.12644483 21.70860967 98.97583008 35.18530273 C100.38541992 36.38219727 100.38541992 36.38219727 101.82348633 37.60327148 C106.98420005 42.12570688 111.67575419 46.8387482 115.97583008 52.18530273 C116.66161133 53.03350586 117.34739258 53.88170898 118.05395508 54.75561523 C143.84193697 87.8471864 153.89874865 127.39925285 148.95800781 168.87084961 C148.00283634 175.87491975 146.25594003 182.49321531 143.97583008 189.18530273 C143.72140137 189.93489258 143.46697266 190.68448242 143.20483398 191.45678711 C139.87518029 201.15934731 136.35886525 210.41075822 130.97583008 219.18530273 C130.31583008 218.52530273 129.65583008 217.86530273 128.97583008 217.18530273 C129.4837207 216.16694336 129.99161133 215.14858398 130.51489258 214.09936523 C134.20679493 206.56431948 137.60358456 199.01672162 140.28833008 191.06030273 C140.51794434 190.39466309 140.74755859 189.72902344 140.98413086 189.04321289 C145.14887555 176.2321292 146.44856297 163.89858396 146.31201172 150.5324707 C146.28828638 148.0557413 146.29149673 145.58008713 146.2980957 143.10327148 C146.24830365 113.18663727 136.52585501 83.87328422 117.97583008 60.18530273 C117.25911133 59.24944336 116.54239258 58.31358398 115.80395508 57.34936523 C91.56861435 26.66845517 57.46600398 9.15966673 19.07739258 3.77905273 C2.18177546 1.95249953 -14.85415395 3.08276798 -31.33666992 7.06030273 C-33.00826172 7.44508789 -33.00826172 7.44508789 -34.71362305 7.83764648 C-40.68125248 9.24387296 -46.34414719 10.87455049 -52.02416992 13.18530273 C-52.35416992 12.19530273 -52.68416992 11.20530273 -53.02416992 10.18530273 C-35.35215286 3.99408587 -18.84605256 -0.00226216 0 0 Z " fill="#CED0D8" transform="translate(255.024169921875,113.814697265625)"/>
<path d="M0 0 C0.66 0 1.32 0 2 0 C2.02485982 4.57152925 2.04293526 9.14301847 2.05493164 13.71459961 C2.05993684 15.26734096 2.06674301 16.82007766 2.07543945 18.37280273 C2.08767307 20.61443232 2.09326657 22.85599918 2.09765625 25.09765625 C2.10281754 25.78336197 2.10797882 26.46906769 2.11329651 27.17555237 C2.1137986 31.56391821 1.70910669 35.68401845 1 40 C1.598125 39.690625 2.19625 39.38125 2.8125 39.0625 C5 38 5 38 8 37 C9.11375 35.5459375 9.11375 35.5459375 10.25 34.0625 C19.46500793 22.94961203 36.10300082 14.7249018 50 12 C40.21571128 24.77393249 27.06179783 31.24188577 12 36 C11.34 36 10.68 36 10 36 C9.95875 36.5775 9.9175 37.155 9.875 37.75 C9 40 9 40 6.20703125 41.56640625 C1.85946798 44.3529404 0.59438775 48.52133959 -1.1875 53.1875 C-1.51685547 54.00025391 -1.84621094 54.81300781 -2.18554688 55.65039062 C-4.33844879 61.03050535 -6.22615574 66.48441414 -8 72 C-8.99 71.67 -9.98 71.34 -11 71 C-11.62041697 46.75362746 -11.24610278 23.50989964 -1 1 C-0.67 0.67 -0.34 0.34 0 0 Z " fill="#CFD3DA" transform="translate(126,151)"/>
<path d="M0 0 C0.66 0 1.32 0 2 0 C2.59537787 8.74543935 -2.14673163 16.43001239 -7.45703125 23.07421875 C-13.09579576 28.9936831 -19.08588245 33.27067263 -26.15234375 37.24609375 C-28.90486091 38.94140267 -30.7688747 40.68806936 -33 43 C-34.68017 44.28760691 -36.38962219 45.53782565 -38.125 46.75 C-39.42824219 47.67039062 -39.42824219 47.67039062 -40.7578125 48.609375 C-43 50 -43 50 -45 50 C-45 49.34 -45 48.68 -45 48 C-45.7425 48.825 -46.485 49.65 -47.25 50.5 C-50 53 -50 53 -54 53 C-49.70436338 35.32652362 -31.77024464 26.64343339 -17.375 17.6875 C-16.42681396 17.11306152 -15.47862793 16.53862305 -14.50170898 15.94677734 C-7.69727655 11.74416502 -2.55862385 7.90847372 0 0 Z " fill="#CDCED5" transform="translate(216,92)"/>
<path d="M0 0 C0.99 0 1.98 0 3 0 C4.83477062 8.38752285 5.24410539 16.62765149 5.3125 25.1875 C5.33860352 26.70053711 5.33860352 26.70053711 5.36523438 28.24414062 C5.3609525 34.79112741 4.76044051 40.97944806 2 47 C-0.6875 49.125 -0.6875 49.125 -3 50 C-2.80664062 49.43152344 -2.61328125 48.86304688 -2.4140625 48.27734375 C-2.15367187 47.50519531 -1.89328125 46.73304688 -1.625 45.9375 C-1.36976563 45.18339844 -1.11453125 44.42929688 -0.8515625 43.65234375 C-0.57054687 42.77707031 -0.28953125 41.90179688 0 41 C0.35964844 39.93652344 0.71929687 38.87304688 1.08984375 37.77734375 C2.17087891 33.29081587 2.25818093 29.21554014 2.1875 24.625 C2.18685547 23.80644531 2.18621094 22.98789063 2.18554688 22.14453125 C2.53019853 18.25995739 2.53019853 18.25995739 1 15 C0.85046875 15.84175781 0.7009375 16.68351562 0.546875 17.55078125 C-1.78279387 28.54818872 -6.01364918 38.2810998 -10.84667969 48.41723633 C-13.81923081 54.77385862 -15.73878148 59.96202665 -16 67 C-15.38511719 66.14535156 -14.77023438 65.29070312 -14.13671875 64.41015625 C-13.3206975 63.29398926 -12.50427001 62.17811919 -11.6875 61.0625 C-11.28337891 60.49853516 -10.87925781 59.93457031 -10.46289062 59.35351562 C-7.33984375 55.11328125 -7.33984375 55.11328125 -4 54 C-4.60694155 57.15330554 -5.6416665 59.18888867 -7.5625 61.75 C-8.01753906 62.36359375 -8.47257813 62.9771875 -8.94140625 63.609375 C-9.46541016 64.29773438 -9.46541016 64.29773438 -10 65 C-9.52433594 64.6596875 -9.04867187 64.319375 -8.55859375 63.96875 C2.52142844 56.29639578 18.10315767 46 32 46 C30.42840852 49.85754273 27.98922513 52.14362932 25 55 C24.52949219 55.5259375 24.05898437 56.051875 23.57421875 56.59375 C13.43622304 67.66252944 -0.1702543 72.32680188 -14 77 C-14 76.01 -14 75.02 -14 74 C-13.39639648 73.77449463 -12.79279297 73.54898926 -12.17089844 73.31665039 C8.23372141 65.64702888 8.23372141 65.64702888 24 51 C10.10062512 55.99405202 -6.11451163 62.52250569 -15 75 C-17.19219273 76.32860165 -18.43435189 77 -21 77 C-20.49146484 75.9171875 -20.49146484 75.9171875 -19.97265625 74.8125 C-18.91538538 71.75533121 -19.05554347 70.16882454 -19.4375 67 C-19.66086382 56.98585554 -14.17195532 47.8516574 -10 39 C-9.01862304 36.87601986 -8.03888323 34.75128035 -7.0625 32.625 C-6.70285156 31.87476563 -6.34320313 31.12453125 -5.97265625 30.3515625 C-3.25002087 23.76912676 -2.31513402 17.07992896 -1.375 10.0625 C-1.2409375 9.09248047 -1.106875 8.12246094 -0.96875 7.12304688 C-0.64133338 4.7492764 -0.31853591 2.37497563 0 0 Z " fill="#CDCED6" transform="translate(150,113)"/>
<path d="M0 0 C0.33 0 0.66 0 1 0 C1.14695312 0.81339844 1.29390625 1.62679688 1.4453125 2.46484375 C8.61028415 39.07208399 29.99341731 72.93253526 61 94 C86.14296607 110.54157903 113.06545296 118.22362792 143 118.25 C144.03462372 118.25101212 144.03462372 118.25101212 145.09014893 118.25204468 C160.75678159 118.22772678 174.64179984 115.6941178 189.5859375 110.98828125 C193 110 193 110 196 110 C196 110.66 196 111.32 196 112 C193.48379598 112.95166101 190.96297095 113.88598291 188.4375 114.8125 C187.75236328 115.07353516 187.06722656 115.33457031 186.36132812 115.60351562 C173.57358171 120.24839213 161.03782676 121.49637603 147.56689453 121.39111328 C145.1338661 121.3750585 142.70250923 121.39104524 140.26953125 121.41015625 C100.68535444 121.46185 66.35944593 104.97509362 38 78 C36.84564453 76.95972656 36.84564453 76.95972656 35.66796875 75.8984375 C20.86563165 62.08292288 10.91453364 43.34561778 4.2265625 24.4609375 C3.49130655 22.3862981 2.72812033 20.32078808 1.91015625 18.27734375 C-0.73124433 11.66817406 -1.23598258 6.92150244 0 0 Z " fill="#CDCED5" transform="translate(115,286)"/>
<path d="M0 0 C2.51360134 2.38434541 4.50965019 4.5114061 6.0703125 7.609375 C6.40933594 8.28226563 6.74835938 8.95515625 7.09765625 9.6484375 C7.43667969 10.34195313 7.77570313 11.03546875 8.125 11.75 C8.47175781 12.42804688 8.81851563 13.10609375 9.17578125 13.8046875 C13.38628072 22.29021516 14.30841323 29.69376836 14.1875 39.125 C14.18685547 40.08792969 14.18621094 41.05085938 14.18554688 42.04296875 C14.15609452 46.80116103 13.98423369 51.32292148 13 56 C9.19300072 52.76000061 7.89918 49.7200413 6.375 45 C5.97023438 43.783125 5.56546875 42.56625 5.1484375 41.3125 C2.38315731 31.6814572 1.59178436 21.70272712 0.875 11.75 C0.78863281 10.61175781 0.70226562 9.47351563 0.61328125 8.30078125 C0.40404223 5.53417643 0.19968279 2.76730808 0 0 Z " fill="#560A0A" transform="translate(98,192)"/>
<path d="M0 0 C0.66 0.33 1.32 0.66 2 1 C0.04758765 7.03532872 -2.26596865 11.12847171 -6.5 15.8125 C-7.02537354 16.41143066 -7.55074707 17.01036133 -8.09204102 17.62744141 C-11.5592874 21.534388 -15.19292625 25.23557104 -18.9375 28.875 C-23.13283296 32.96726842 -26.19092824 36.86617919 -29 42 C-30.22358946 38.5037419 -29.77370684 36.52142553 -28.5234375 33.078125 C-28.01103516 31.66273438 -28.01103516 31.66273438 -27.48828125 30.21875 C-27.12089844 29.2390625 -26.75351563 28.259375 -26.375 27.25 C-26.03082031 26.28578125 -25.68664062 25.3215625 -25.33203125 24.328125 C-20.10826289 10.14106406 -20.10826289 10.14106406 -14.0625 5.9765625 C-13.051875 5.53054687 -12.04125 5.08453125 -11 4.625 C-9.989375 4.16351563 -8.97875 3.70203125 -7.9375 3.2265625 C-6.968125 2.82179687 -5.99875 2.41703125 -5 2 C-4.0925 1.59523437 -3.185 1.19046875 -2.25 0.7734375 C-1.5075 0.51820313 -0.765 0.26296875 0 0 Z " fill="#550909" transform="translate(147,185)"/>
<path d="M0 0 C0.33 0 0.66 0 1 0 C3.81551994 11.51387424 2.91107685 24.27018853 -2 35 C-2.33902344 35.75023437 -2.67804688 36.50046875 -3.02734375 37.2734375 C-6.66108949 44.43747715 -11.86877104 50.85202753 -17 57 C-17.33 57 -17.66 57 -18 57 C-18.36913359 51.21439604 -17.26206401 47.26432801 -14.9375 42 C-14.62385498 41.2587085 -14.31020996 40.51741699 -13.98706055 39.75366211 C-12.45911752 36.18236671 -10.85840189 32.66376491 -9.1171875 29.19140625 C-4.37768816 19.69844548 -1.92299778 10.42718669 0 0 Z " fill="#560A0A" transform="translate(151,124)"/>
<path d="M0 0 C0.33 0 0.66 0 1 0 C1.9907518 9.4121421 -3.24770247 16.99372585 -8.7956543 24.09619141 C-13.62956859 30.02287655 -19.21033566 35.03047044 -25 40 C-25.76441406 40.66515625 -26.52882813 41.3303125 -27.31640625 42.015625 C-28.86688858 43.35624407 -30.43124016 44.68081559 -32 46 C-31.73898764 34.51545625 -23.68653144 26.30656375 -15.9375 18.75 C-15.25292725 18.1010376 -14.56835449 17.4520752 -13.86303711 16.78344727 C-8.46179018 11.64682037 -4.1286186 6.1929279 0 0 Z " fill="#560B0B" transform="translate(148,193)"/>
<path d="M0 0 C-2.20821014 2.30330425 -3.85134964 3.55436894 -6.875 4.625 C-7.53242188 4.86476562 -8.18984375 5.10453125 -8.8671875 5.3515625 C-14.00106835 6.91241272 -18.96227551 7.17261881 -24.30078125 7.24609375 C-25.93425004 7.27903764 -27.56771345 7.3122492 -29.20117188 7.34570312 C-31.75508894 7.39299335 -34.30898506 7.43744583 -36.86303711 7.47680664 C-39.34250976 7.51683293 -41.82155195 7.56830026 -44.30078125 7.62109375 C-45.05313553 7.6295079 -45.80548981 7.63792206 -46.5806427 7.64659119 C-51.66072941 7.76335895 -56.10696408 8.61783919 -61 10 C-53.60549847 1.70919526 -44.69780971 0.90007835 -34.12207031 0.14794922 C-22.76938146 -0.390034 -11.36004608 -0.14083597 0 0 Z " fill="#590F0F" transform="translate(220,146)"/>
<path d="M0 0 C0 5.54530717 -4.42681502 9.34478675 -8.09765625 13.20703125 C-13.41008434 18.27113215 -19.06477104 22.03534981 -25.37817383 25.68408203 C-33.07789278 30.14063047 -40.08011472 35.4222277 -47 41 C-42.91816119 25.78587354 -27.23275054 17.94899935 -14.72851562 10.09667969 C-11.85347029 8.272569 -9.02159219 6.38715617 -6.1875 4.5 C-5.21167969 3.8503125 -4.23585937 3.200625 -3.23046875 2.53125 C-1.12452809 1.18544385 -1.12452809 1.18544385 0 0 Z " fill="#560B0B" transform="translate(212,103)"/>
<path d="M0 0 C-10.68594521 12.17932264 -24.68875328 19.30148437 -40 24 C-40.66 23.67 -41.32 23.34 -42 23 C-35.04329738 16.21603717 -10.78570604 -5.39285302 0 0 Z " fill="#550909" transform="translate(176,164)"/>
<path d="M0 0 C0 0.66 0 1.32 0 2 C-2.51620402 2.95166101 -5.03702905 3.88598291 -7.5625 4.8125 C-8.59020508 5.20405273 -8.59020508 5.20405273 -9.63867188 5.60351562 C-22.42641829 10.24839213 -34.96217324 11.49637603 -48.43310547 11.39111328 C-50.8661339 11.3750585 -53.29749077 11.39104524 -55.73046875 11.41015625 C-69.34757194 11.42845638 -82.28372198 9.4960796 -95.4375 5.9375 C-96.65308594 5.61652344 -97.86867187 5.29554688 -99.12109375 4.96484375 C-102 4 -102 4 -104 2 C-100.19373403 0.73124468 -98.7865789 1.51757574 -95 2.75 C-65.92706268 11.44343409 -35.14436406 10.03531402 -6.4140625 0.98828125 C-3 0 -3 0 0 0 Z " fill="#CAC9D0" transform="translate(311,396)"/>
<path d="M0 0 C0.33 0 0.66 0 1 0 C1.62235372 29.4963746 1.62235372 29.4963746 -2 41 C-2.35964844 42.15371094 -2.71929687 43.30742187 -3.08984375 44.49609375 C-4.01654797 47.34875975 -4.98211035 50.17884392 -6 53 C-6.33 53 -6.66 53 -7 53 C-7.49483228 34.41629877 -5.61526218 17.72940648 0 0 Z " fill="#530505" transform="translate(124,161)"/>
<path d="M0 0 C0.66 0 1.32 0 2 0 C6.58807189 17.80171893 2.81809888 40.92396986 -3 58 C-3.25442871 58.74958984 -3.50885742 59.49917969 -3.77099609 60.27148438 C-7.10064979 69.97404458 -10.61696483 79.22545549 -16 88 C-16.66 87.34 -17.32 86.68 -18 86 C-17.49210937 84.98164063 -16.98421875 83.96328125 -16.4609375 82.9140625 C-12.76903515 75.37901674 -9.37224552 67.83141889 -6.6875 59.875 C-6.45788574 59.20936035 -6.22827148 58.5437207 -5.99169922 57.85791016 C-1.59376163 44.32950668 -0.50970618 31.15493876 -0.3125 17.0625 C-0.2792214 15.39645942 -0.24472262 13.73044276 -0.20898438 12.06445312 C-0.12531319 8.04310429 -0.05795283 4.02179826 0 0 Z " fill="#C0B9BF" transform="translate(402,245)"/>
<path d="M0 0 C3.87997576 1.29332525 5.1797363 3.62538355 7.375 6.875 C7.77203125 7.45781738 8.1690625 8.04063477 8.578125 8.64111328 C13.37985266 15.8574352 17.41492149 23.22382228 18 32 C17.01 31.67 16.02 31.34 15 31 C14.33203125 29.20703125 14.33203125 29.20703125 13.8125 26.8125 C11.86756492 19.52956374 7.87760606 13.3920632 4 7 C4.39606469 11.81437617 4.81399399 16.62658937 5.25 21.4375 C5.31391937 22.14474213 5.37783875 22.85198425 5.44369507 23.58065796 C6.28334468 32.67446383 7.34708845 41.55255278 9.90527344 50.35131836 C10.34201974 51.88218381 10.68281568 53.439971 11 55 C10.34 55.66 9.68 56.32 9 57 C3.09748831 42.44429155 2.29297158 27.4977425 1 12 C0.88430101 10.63800498 0.76843968 9.27602374 0.65234375 7.9140625 C0.42992847 5.27640524 0.2115292 2.63854841 0 0 Z " fill="#CCCDD4" transform="translate(95,186)"/>
<path d="M0 0 C-3.58492273 7.93804319 -10.4498715 10.93326097 -18.23046875 14.01953125 C-21.92456217 15.32731326 -25.1083838 16.12627148 -29.03417969 16.11352539 C-30.20494049 16.11341209 -30.20494049 16.11341209 -31.39935303 16.11329651 C-32.23178528 16.10813522 -33.06421753 16.10297394 -33.921875 16.09765625 C-34.78186096 16.0962413 -35.64184692 16.09482635 -36.52789307 16.09336853 C-39.26863109 16.08778097 -42.00928676 16.07523075 -44.75 16.0625 C-46.6106759 16.05748339 -48.47135309 16.05292077 -50.33203125 16.04882812 C-54.88805246 16.03781561 -59.44401228 16.02055951 -64 16 C-64 15.34 -64 14.68 -64 14 C-62.40514771 13.97812622 -62.40514771 13.97812622 -60.77807617 13.95581055 C-56.7837784 13.89726253 -52.79001159 13.82004032 -48.79614258 13.73754883 C-47.07683006 13.70456249 -45.35741607 13.67645129 -43.63793945 13.65356445 C-32.37614637 13.49965219 -22.27443141 13.13721571 -12 8 C-16.62 7.34 -21.24 6.68 -26 6 C-26 5.67 -26 5.34 -26 5 C-25.10539062 4.97421875 -24.21078125 4.9484375 -23.2890625 4.921875 C-16.19391928 4.58905378 -10.35544 3.84748119 -3.890625 0.83984375 C-2 0 -2 0 0 0 Z " fill="#CDCFD6" transform="translate(231,139)"/>
<path d="M0 0 C11.32656628 13.19087687 16.62773337 37.04494702 17 54 C16.34 54 15.68 54 15 54 C13.97912903 49.98943547 12.98686894 45.9852059 12.125 41.9375 C11.75553413 40.29041551 11.37974272 38.64474552 11 37 C10.74605469 35.8965625 10.49210937 34.793125 10.23046875 33.65625 C8.10832898 25.05932632 5.1815447 17.29229043 1.48828125 9.265625 C-1.15512885 3.46538656 -1.15512885 3.46538656 0 0 Z " fill="#CACAD1" transform="translate(387,191)"/>
<path d="M0 0 C0.66 0 1.32 0 2 0 C2 10.89 2 21.78 2 33 C1.01 33 0.02 33 -1 33 C-1.33 26.07 -1.66 19.14 -2 12 C-2.66 14.97 -3.32 17.94 -4 21 C-4.99 20.34 -5.98 19.68 -7 19 C-5.34464282 12.17792193 -3.37399268 6.16626248 0 0 Z " fill="#BEB5BC" transform="translate(126,151)"/>
<path d="M0 0 C3.25926162 9.93622118 -5.61082272 26.7856856 -9.90722656 35.93115234 C-11.47988938 39.02858404 -13.18377578 42.03948799 -15 45 C-15.66 44.34 -16.32 43.68 -17 43 C-16.49210937 41.98164063 -15.98421875 40.96328125 -15.4609375 39.9140625 C-9.77273693 28.29637738 -5.34367448 16.5066328 -1.8984375 4.0390625 C-1 1 -1 1 0 0 Z " fill="#CCCED5" transform="translate(401,288)"/>
<path d="M0 0 C2.79872437 2.52788007 4.45773019 4.20411134 5 8 C5.66 8 6.32 8 7 8 C7.33 6.68 7.66 5.36 8 4 C8.02505615 4.83023682 8.0501123 5.66047363 8.07592773 6.51586914 C8.67198488 27.77633096 8.67198488 27.77633096 10 49 C9.34 48.67 8.68 48.34 8 48 C6.25383048 41.87128736 5.96857647 35.41449267 5.828125 29.078125 C5.80242432 28.02761963 5.77672363 26.97711426 5.75024414 25.89477539 C5.70907046 23.79011149 5.6893116 21.68489715 5.69311523 19.57983398 C5.5780635 13.44822379 4.81938559 9.56429831 1.06958008 4.63208008 C0 3 0 3 0 0 Z " fill="#D6DDE5" transform="translate(105,241)"/>
<path d="M0 0 C-1.48086289 4.30796477 -4.60611415 5.87481327 -8.375 8 C-12.47987967 10.37212008 -15.72565863 12.59146431 -19 16 C-20.68017 17.28760691 -22.38962219 18.53782565 -24.125 19.75 C-25.42824219 20.67039063 -25.42824219 20.67039063 -26.7578125 21.609375 C-29 23 -29 23 -31 23 C-31.33 22.01 -31.66 21.02 -32 20 C-25.28185697 14.87409877 -18.4202656 10.3144979 -11.12866211 6.05883789 C-8.55017587 4.55053784 -6.06340527 3.04822222 -3.68359375 1.23828125 C-2 0 -2 0 0 0 Z " fill="#CDCED6" transform="translate(202,119)"/>
<path d="M0 0 C8.28637771 7.03560372 8.28637771 7.03560372 10 9 C10.1875 11.6875 10.1875 11.6875 10 14 C6.19956554 15.73734147 4.40285423 16 0 16 C0 10.72 0 5.44 0 0 Z " fill="#540707" transform="translate(225,344)"/>
<path d="M0 0 C0.66 0 1.32 0 2 0 C2.61114615 8.37779518 -1.97161046 16.37646608 -7.24609375 22.6875 C-9.10684411 24.54493351 -10.98386591 26.31377876 -13 28 C-13.66 27.34 -14.32 26.68 -15 26 C-14.54109375 25.57589844 -14.0821875 25.15179688 -13.609375 24.71484375 C-9.47640381 20.76420952 -6.59838877 17.09284198 -4 12 C-4.48210937 12.3609375 -4.96421875 12.721875 -5.4609375 13.09375 C-6.09257812 13.5578125 -6.72421875 14.021875 -7.375 14.5 C-8.00148437 14.9640625 -8.62796875 15.428125 -9.2734375 15.90625 C-11 17 -11 17 -13 17 C-13 16.34 -13 15.68 -13 15 C-11.390625 13.73828125 -11.390625 13.73828125 -9.25 12.3125 C-5.0821055 9.3101406 -3.21229348 6.60157044 -1 2 C-0.67 1.34 -0.34 0.68 0 0 Z " fill="#D0D5DC" transform="translate(216,92)"/>
<path d="M0 0 C4.18328604 1.5220438 5.65497547 4.13951651 8 7.8125 C12.19374708 14.17802498 17.03944679 19.62922357 22.30078125 25.125 C24.68223258 27.6615386 26.87195342 30.25022009 29 33 C25.15207517 33 24.03228379 31.47302529 21.36572266 28.88378906 C20.77065918 28.28276367 20.1755957 27.68173828 19.5625 27.0625 C18.94938965 26.44729492 18.3362793 25.83208984 17.70458984 25.19824219 C0 6.89635611 0 6.89635611 0 0 Z " fill="#CFD3DA" transform="translate(132,336)"/>
<path d="M0 0 C0 0.66 0 1.32 0 2 C-24.880331 11.41006399 -24.880331 11.41006399 -37 11 C-37 10.01 -37 9.02 -37 8 C-35.97003906 7.84144531 -34.94007813 7.68289063 -33.87890625 7.51953125 C-25.19167013 6.11760101 -16.84513471 4.272899 -8.44750977 1.6262207 C-5.51038076 0.70477538 -3.10043303 0 0 0 Z " fill="#C4C0C6" transform="translate(311,396)"/>
<path d="M0 0 C0.66 0 1.32 0 2 0 C1.54210744 10.76047509 -6.7572782 18.70689404 -14 26 C-16.58984375 28.35546875 -16.58984375 28.35546875 -19 30 C-19.99 29.67 -20.98 29.34 -22 29 C-21.31035156 28.42894531 -20.62070313 27.85789063 -19.91015625 27.26953125 C-11.19431008 19.74927441 -3.27457071 11.33374732 0 0 Z " fill="#CACBD2" transform="translate(147,201)"/>
<path d="M0 0 C0.33 0 0.66 0 1 0 C1.09796875 1.24652344 1.1959375 2.49304688 1.296875 3.77734375 C2.11714304 13.35028752 3.26868355 22.519948 5.85449219 31.79272461 C6.31545629 33.50916518 6.66862438 35.25390541 7 37 C6.34 37.66 5.68 38.32 5 39 C-0.08021631 26.47208794 -2.82835662 13.43469393 0 0 Z " fill="#C6C3CA" transform="translate(99,204)"/>
<path d="M0 0 C0.66 0 1.32 0 2 0 C2 2.31 2 4.62 2 7 C2.556875 6.690625 3.11375 6.38125 3.6875 6.0625 C6.12540433 4.94238179 8.36224186 4.43962636 11 4 C10 7 10 7 7.125 8.875 C3.91189628 11.05991053 2.90803284 12.72908657 1 16 C0.01 16 -0.98 16 -2 16 C-1.85833643 14.08302063 -1.71150416 12.16642277 -1.5625 10.25 C-1.48128906 9.18265625 -1.40007812 8.1153125 -1.31640625 7.015625 C-1.05909227 4.56320038 -0.68187782 2.36078709 0 0 Z " fill="#D2D6DE" transform="translate(125,184)"/>
<path d="M0 0 C0.33 0 0.66 0 1 0 C0.53998828 6.04068016 -0.07253286 12.05737092 -0.875 18.0625 C-1.01679687 19.14660156 -1.15859375 20.23070312 -1.3046875 21.34765625 C-2 24 -2 24 -5 26 C-3.25740319 8.14350797 -3.25740319 8.14350797 0 0 Z " fill="#CFD2D9" transform="translate(120,169)"/>
<path d="M0 0 C1.32 0 2.64 0 4 0 C4 8.25 4 16.5 4 25 C3.67 25 3.34 25 3 25 C2.67 18.07 2.34 11.14 2 4 C1.34 6.97 0.68 9.94 0 13 C-0.99 12.34 -1.98 11.68 -3 11 C-2.01 7.37 -1.02 3.74 0 0 Z " fill="#B1A0A6" transform="translate(122,159)"/>
<path d="M0 0 C-1.1275318 2.76757806 -2.26282682 4.25608767 -4.4375 6.375 C-7.85186595 9.87264316 -10 13.03522912 -10 18 C-11.32 18 -12.64 18 -14 18 C-12.26952909 10.88034827 -9.3360593 6.04032589 -4 1 C-2 0 -2 0 0 0 Z " fill="#C8C7CE" transform="translate(176,127)"/>
<path d="M0 0 C-0.33 0.99 -0.66 1.98 -1 3 C-1.85722656 3.06058594 -2.71445313 3.12117188 -3.59765625 3.18359375 C-9.43604873 3.61143536 -15.22057272 4.059163 -21 5 C-21 4.01 -21 3.02 -21 2 C-13.90294338 0.65504172 -7.2274605 -0.24091535 0 0 Z " fill="#C0BAC0" transform="translate(251,114)"/>
<path d="M0 0 C0 0.66 0 1.32 0 2 C-7.33333333 5.66666667 -14.66666667 9.33333333 -22 13 C-22 12.01 -22 11.02 -22 10 C-18.90116855 8.32326863 -15.79511545 6.6603866 -12.6875 5 C-11.80642578 4.52304688 -10.92535156 4.04609375 -10.01757812 3.5546875 C-9.17001953 3.10351562 -8.32246094 2.65234375 -7.44921875 2.1875 C-6.66893311 1.76855469 -5.88864746 1.34960938 -5.0847168 0.91796875 C-3 0 -3 0 0 0 Z " fill="#CED1D8" transform="translate(203,125)"/>
<path d="M0 0 C0.99 0.33 1.98 0.66 3 1 C5.14255793 0.61067144 5.14255793 0.61067144 7 0 C4.55649504 2.62092116 1.86596812 4.63024036 -1.0625 6.6875 C-1.94035156 7.31011719 -2.81820312 7.93273437 -3.72265625 8.57421875 C-6 10 -6 10 -8 10 C-8.33 9.01 -8.66 8.02 -9 7 C-7.57277341 5.8001722 -6.13284224 4.6154424 -4.6875 3.4375 C-3.88699219 2.77621094 -3.08648437 2.11492187 -2.26171875 1.43359375 C-1.51535156 0.96050781 -0.76898438 0.48742187 0 0 Z " fill="#C5C2C9" transform="translate(179,132)"/>
<path d="M0 0 C0.66 0 1.32 0 2 0 C2.50643553 2.22771342 3.0048962 4.45724076 3.5 6.6875 C3.7784375 7.92886719 4.056875 9.17023438 4.34375 10.44921875 C4.89354126 13.42398218 5.13795705 15.99368602 5 19 C4.34 19 3.68 19 3 19 C1.2100144 12.6753842 0.45759953 6.5508985 0 0 Z " fill="#CDCFD6" transform="translate(399,226)"/>
<path d="M0 0 C-0.33 0.66 -0.66 1.32 -1 2 C-3.765625 2.8515625 -3.765625 2.8515625 -7.25 3.625 C-8.38953125 3.88539063 -9.5290625 4.14578125 -10.703125 4.4140625 C-13.56912304 4.92342234 -16.10235596 5.11982739 -19 5 C-19 4.01 -19 3.02 -19 2 C-16.77149723 1.66225668 -14.54216533 1.3299813 -12.3125 1 C-10.45044922 0.7215625 -10.45044922 0.7215625 -8.55078125 0.4375 C-5.64113629 0.07899589 -2.92299978 -0.08942256 0 0 Z " fill="#BEB6BC" transform="translate(293,402)"/>
<path d="M0 0 C0.33 0 0.66 0 1 0 C1.47959778 2.22907395 1.9586608 4.45826297 2.4375 6.6875 C2.83775391 8.54955078 2.83775391 8.54955078 3.24609375 10.44921875 C3.85055136 13.29612015 4.43764684 16.14455626 5 19 C4.01 19.33 3.02 19.66 2 20 C-0.07979208 12.94985735 -1.53616498 7.26187082 0 0 Z " fill="#C2BEC4" transform="translate(115,286)"/>
<path d="M0 0 C1.68322018 4.9689582 0.10321769 9.35704775 -2 14 C-4.6875 16.125 -4.6875 16.125 -7 17 C-6.80664062 16.43152344 -6.61328125 15.86304688 -6.4140625 15.27734375 C-5.15284272 11.53739005 -3.93046129 7.82091506 -2.9375 4 C-2.628125 3.01 -2.31875 2.02 -2 1 C-1.34 0.67 -0.68 0.34 0 0 Z " fill="#C2BCC3" transform="translate(154,146)"/>
<path d="M0 0 C2.125 0.375 2.125 0.375 4 1 C4.625 2.875 4.625 2.875 5 5 C4.34 5.66 3.68 6.32 3 7 C0.875 6.625 0.875 6.625 -1 6 C-1.625 4.125 -1.625 4.125 -2 2 C-1.34 1.34 -0.68 0.68 0 0 Z " fill="#C9C9D0" transform="translate(320,388)"/>
<path d="M0 0 C2.125 0.375 2.125 0.375 4 1 C4.625 2.875 4.625 2.875 5 5 C4.34 5.66 3.68 6.32 3 7 C0.875 6.625 0.875 6.625 -1 6 C-1.625 4.125 -1.625 4.125 -2 2 C-1.34 1.34 -0.68 0.68 0 0 Z " fill="#CAC9D0" transform="translate(342,375)"/>
<path d="M0 0 C-2.64521932 2.64521932 -5.66171349 3.44542519 -9.125 4.625 C-10.11306641 4.96917969 -10.11306641 4.96917969 -11.12109375 5.3203125 C-12.74561226 5.88536242 -14.37257971 6.44336277 -16 7 C-16 6.01 -16 5.02 -16 4 C-13.90049414 3.13444052 -11.7952093 2.28288723 -9.6875 1.4375 C-8.51574219 0.96183594 -7.34398437 0.48617187 -6.13671875 -0.00390625 C-3 -1 -3 -1 0 0 Z " fill="#CACAD1" transform="translate(152,183)"/>
<path d="M0 0 C2.625 0.375 2.625 0.375 5 1 C4.67 2.65 4.34 4.3 4 6 C2.35 6 0.7 6 -1 6 C-1.625 4.125 -1.625 4.125 -2 2 C-1.34 1.34 -0.68 0.68 0 0 Z " fill="#CED1D8" transform="translate(377,339)"/>
<path d="M0 0 C0.33 0.99 0.66 1.98 1 3 C-0.07421875 5.0078125 -0.07421875 5.0078125 -1.6875 7.125 C-2.20699219 7.82882813 -2.72648438 8.53265625 -3.26171875 9.2578125 C-5.18169057 11.18209887 -6.34723083 11.61855607 -9 12 C-7.11833565 7.72349011 -4.28426692 2.14213346 0 0 Z " fill="#CFD2D9" transform="translate(145,167)"/>
<path d="M0 0 C4.52615993 3.67832017 8.39424999 7.41086363 12 12 C9 12 9 12 6.73828125 10.13671875 C5.93777344 9.32847656 5.13726562 8.52023437 4.3125 7.6875 C3.50425781 6.88699219 2.69601563 6.08648437 1.86328125 5.26171875 C0 3 0 3 0 0 Z " fill="#D3D9E0" transform="translate(149,357)"/>
<path d="M0 0 C1.2065625 0.0309375 1.2065625 0.0309375 2.4375 0.0625 C3.0625 1.9375 3.0625 1.9375 3.4375 4.0625 C2.7775 4.7225 2.1175 5.3825 1.4375 6.0625 C-0.6875 5.6875 -0.6875 5.6875 -2.5625 5.0625 C-3.125 3.125 -3.125 3.125 -3.5625 1.0625 C-2.5625 0.0625 -2.5625 0.0625 0 0 Z " fill="#D0D3DA" transform="translate(362.5625,358.9375)"/>
<path d="M0 0 C1.1540694 3.4622082 0.79627697 4.52684224 -0.25 7.9375 C-0.62898437 9.21947266 -0.62898437 9.21947266 -1.015625 10.52734375 C-2.02795457 13.07021923 -3.26402702 14.89830237 -5 17 C-3.57142857 3.57142857 -3.57142857 3.57142857 0 0 Z " fill="#D0D4DB" transform="translate(149,131)"/>
<path d="M0 0 C-2.77721917 2.77721917 -5.17893071 3.18567376 -9 4 C-12.9375 3.625 -12.9375 3.625 -16 3 C-10.50725702 0.05745912 -6.15402446 -0.10256707 0 0 Z " fill="#C6C3CA" transform="translate(232,117)"/>
<path d="M0 0 C4.571279 0.54855348 8.67435795 1.41744803 13 3 C12.01 4.485 12.01 4.485 11 6 C7.04 4.68 3.08 3.36 -1 2 C-0.67 1.34 -0.34 0.68 0 0 Z " fill="#C6C4CB" transform="translate(298,120)"/>
<path d="M0 0 C-7.06608191 0.13794954 -13.97360585 -0.25194283 -21 -1 C-21 -1.33 -21 -1.66 -21 -2 C-13.93930436 -3.17678261 -6.18051233 -4.12034155 0 0 Z " fill="#C5C2C9" transform="translate(287,118)"/>
<path d="M0 0 C-1.01953125 1.55078125 -1.01953125 1.55078125 -3 3 C-5.69199706 2.89114329 -8.05732267 2.64673731 -10.6875 2.1875 C-11.38939453 2.07857422 -12.09128906 1.96964844 -12.81445312 1.85742188 C-14.5453794 1.58659667 -16.2730732 1.29525563 -18 1 C-18 0.67 -18 0.34 -18 0 C-15.75067773 -0.1954625 -13.50049858 -0.38108226 -11.25 -0.5625 C-9.99703125 -0.66691406 -8.7440625 -0.77132812 -7.453125 -0.87890625 C-4.60547636 -0.97876723 -2.65713933 -0.90584295 0 0 Z " fill="#C8C6CD" transform="translate(223,144)"/>
<path d="M0 0 C0.99 0 1.98 0 3 0 C3 3.3 3 6.6 3 10 C2.01 10 1.02 10 0 10 C0 6.7 0 3.4 0 0 Z " fill="#D3D9E0" transform="translate(150,113)"/>
<path d="M0 0 C0.33 0.66 0.66 1.32 1 2 C1.99 2.33 2.98 2.66 4 3 C3.01 5.64 2.02 8.28 1 11 C0.67 10.34 0.34 9.68 0 9 C-0.66 9 -1.32 9 -2 9 C-1.34 6.03 -0.68 3.06 0 0 Z " fill="#CACAD0" transform="translate(122,198)"/>
<path d="M0 0 C0.66 0.33 1.32 0.66 2 1 C2 1.66 2 2.32 2 3 C0.04669132 4.03041513 -1.91281528 5.0490893 -3.875 6.0625 C-4.96554688 6.63097656 -6.05609375 7.19945312 -7.1796875 7.78515625 C-8.11039063 8.18605469 -9.04109375 8.58695313 -10 9 C-10.66 8.67 -11.32 8.34 -12 8 C-8.04 5.36 -4.08 2.72 0 0 Z " fill="#621E1F" transform="translate(198,123)"/>
<path d="M0 0 C0.99 0 1.98 0 3 0 C2.9129995 1.62600941 2.8048219 3.25089678 2.6875 4.875 C2.62949219 5.77992188 2.57148437 6.68484375 2.51171875 7.6171875 C2 10 2 10 -1 12 C-0.67 8.04 -0.34 4.08 0 0 Z " fill="#C1BAC1" transform="translate(116,183)"/>
<path d="M0 0 C0.99 0.33 1.98 0.66 3 1 C1.02 3.97 -0.96 6.94 -3 10 C-3.66 9.67 -4.32 9.34 -5 9 C-3.7508258 5.54074837 -2.32472205 2.85306797 0 0 Z " fill="#CCCED5" transform="translate(123,218)"/>
<path d="M0 0 C0.99 0.33 1.98 0.66 3 1 C0.69 3.64 -1.62 6.28 -4 9 C-4.66 8.34 -5.32 7.68 -6 7 C-4.02 4.69 -2.04 2.38 0 0 Z " fill="#CAC9D0" transform="translate(140,200)"/>
<path d="M0 0 C0 0.66 0 1.32 0 2 C-1.4562545 2.67119549 -2.91507867 3.33681807 -4.375 4 C-5.59316406 4.556875 -5.59316406 4.556875 -6.8359375 5.125 C-9 6 -9 6 -11 6 C-11 5.34 -11 4.68 -11 4 C-9.73308493 3.32591692 -8.46129251 2.66099503 -7.1875 2 C-6.47980469 1.62875 -5.77210938 1.2575 -5.04296875 0.875 C-3 0 -3 0 0 0 Z " fill="#D3D9E0" transform="translate(203,125)"/>
<path d="M0 0 C1.90318884 2.85478326 2.4619099 4.41941308 3.125 7.6875 C3.29257813 8.49574219 3.46015625 9.30398437 3.6328125 10.13671875 C3.75398438 10.75160156 3.87515625 11.36648437 4 12 C3.01 11.67 2.02 11.34 1 11 C0.67 7.37 0.34 3.74 0 0 Z " fill="#C7C5CC" transform="translate(109,206)"/>
<path d="M0 0 C1.1171875 1.734375 1.1171875 1.734375 2 4 C1.3203125 6.140625 1.3203125 6.140625 0.125 8.25 C-0.26429688 8.95640625 -0.65359375 9.6628125 -1.0546875 10.390625 C-1.36664063 10.92171875 -1.67859375 11.4528125 -2 12 C-2.66 11.67 -3.32 11.34 -4 11 C-2.7874262 7.27566618 -1.49140021 3.62197194 0 0 Z " fill="#C8C7CE" transform="translate(143,145)"/>
<path d="M0 0 C0.99 0.33 1.98 0.66 3 1 C5.14255793 0.61067144 5.14255793 0.61067144 7 0 C4.3765992 2.91488977 1.28183606 4.88503898 -2 7 C-2.66 6.67 -3.32 6.34 -4 6 C-2.68 4.02 -1.36 2.04 0 0 Z " fill="#957377" transform="translate(179,132)"/>
<path d="M0 0 C0.33 1.32 0.66 2.64 1 4 C1.66 4.33 2.32 4.66 3 5 C2.01 7.64 1.02 10.28 0 13 C-0.33 13 -0.66 13 -1 13 C-0.67 8.71 -0.34 4.42 0 0 Z " fill="#C3BEC5" transform="translate(149,119)"/>
<path d="M0 0 C-2.06756277 2.7972908 -3.14440371 3.02692273 -6.6875 3.6875 C-7.780625 3.790625 -8.87375 3.89375 -10 4 C-10 3.01 -10 2.02 -10 1 C-6.61981469 -0.04005702 -3.5219721 -0.08004482 0 0 Z " fill="#BBB2B8" transform="translate(240,115)"/>
<path d="M0 0 C0.33 0 0.66 0 1 0 C1 2.64 1 5.28 1 8 C0.01 8.33 -0.98 8.66 -2 9 C-3 6 -3 6 -1.5625 2.8125 C-1.046875 1.884375 -0.53125 0.95625 0 0 Z " fill="#D5DBE3" transform="translate(126,151)"/>
<path d="M0 0 C0.99 0.33 1.98 0.66 3 1 C2.1875 4.4375 2.1875 4.4375 1 8 C0.01 8.33 -0.98 8.66 -2 9 C-1.34 6.03 -0.68 3.06 0 0 Z " fill="#C0B9BF" transform="translate(397,298)"/>
<path d="M0 0 C0.33 0 0.66 0 1 0 C2.10228696 4.40914783 2.07654536 8.48382401 2 13 C1.67 13 1.34 13 1 13 C0.855625 12.2575 0.71125 11.515 0.5625 10.75 C0.0636926 8.09581805 0.0636926 8.09581805 -0.625 5.9375 C-1.06506291 3.66384163 -0.70205558 2.18417292 0 0 Z " fill="#7B474A" transform="translate(151,124)"/>
<path d="M0 0 C1.9375 0.6875 1.9375 0.6875 4 2 C4.75 4.625 4.75 4.625 5 7 C2.5 5.1875 2.5 5.1875 0 3 C0 2.01 0 1.02 0 0 Z " fill="#CACAD1" transform="translate(144,352)"/>
<path d="M0 0 C4.75 0.875 4.75 0.875 7 2 C6.67 2.99 6.34 3.98 6 5 C4.02 4.01 2.04 3.02 0 2 C0 1.34 0 0.68 0 0 Z " fill="#C5C2C8" transform="translate(185,387)"/>
<path d="M0 0 C1.2077558 3.62326739 0.54311128 4.64146369 -1 8 C-1.66 8 -2.32 8 -3 8 C-2.25 2.25 -2.25 2.25 0 0 Z " fill="#D1D6DD" transform="translate(396,306)"/>
<path d="M0 0 C0.66 0 1.32 0 2 0 C1.67 2.31 1.34 4.62 1 7 C0.01 7 -0.98 7 -2 7 C-1.34 4.69 -0.68 2.38 0 0 Z " fill="#D4DBE2" transform="translate(120,207)"/>
<path d="M0 0 C0.33 0 0.66 0 1 0 C1 2.64 1 5.28 1 8 C0.01 8 -0.98 8 -2 8 C-1.125 1.125 -1.125 1.125 0 0 Z " fill="#713739" transform="translate(270,190)"/>
<path d="M0 0 C1.89213369 2.38573379 3.02391783 4.07175348 4 7 C3.01 7.33 2.02 7.66 1 8 C-1.125 3.375 -1.125 3.375 0 0 Z " fill="#C1BBC2" transform="translate(387,191)"/>
<path d="M0 0 C2.52588702 2.36292656 3.88820837 3.66462511 5 7 C4.01 7 3.02 7 2 7 C1.01 5.02 0.02 3.04 -1 1 C-0.67 0.67 -0.34 0.34 0 0 Z " fill="#D3D9E1" transform="translate(378,177)"/>
</svg>
